<svg width="48" height="53" viewBox="0 0 48 53" fill="none" xmlns="http://www.w3.org/2000/svg">
<path fill-rule="evenodd" clip-rule="evenodd" d="M22.3499 0.148936C23.6948 -0.127985 25.0908 -0.0171977 26.3752 0.468402C30.1258 2.06573 41.3902 8.74895 45.4698 11.5347C47.5432 12.9531 47.8275 13.7709 47.8946 16.5791C48.0064 21.1826 48.016 30.5716 47.9841 35.2486C47.9617 38.5679 48.1917 39.3857 45.0002 41.5101C41.2209 44.0307 31.918 49.3722 27.7489 51.4807C24.0016 53.3815 23.2764 53.5444 19.8836 51.7107C15.5356 49.3466 7.82366 44.6984 3.67057 42.0564C1.45985 40.6508 0.3449 40.5837 0.268228 34.1688C0.207529 29.741 0.00945822 23.1505 0.00306885 18.7546C0.00306885 14.921 -0.239727 12.9691 3.5939 10.5316C7.42752 8.09405 15.9637 3.07844 21.0816 0.592994C21.4888 0.391802 21.9175 0.237471 22.3595 0.132963L22.3499 0.148936Z" fill="#4EDEEF"/>
<path d="M23.5326 53C22.4677 53 21.4058 52.5702 19.752 51.6761C15.6613 49.4519 8.05616 44.8873 3.81509 42.18L3.27321 41.8443C1.23411 40.5895 0.328891 39.8052 0.259981 34.0423C0.238056 32.2886 0.194204 30.2181 0.14722 28.0252C0.0783106 24.8097 4.28176e-06 21.4811 4.28176e-06 18.8993V18.2938C4.28176e-06 14.8869 -0.0250538 12.8289 3.75871 10.4259C7.61764 7.96007 15.9745 3.05672 20.936 0.628568C21.3659 0.420825 21.8177 0.261933 22.2829 0.15486C23.6991 -0.137361 25.1695 -0.0142765 26.5177 0.509357C30.3046 2.1344 41.3144 8.68475 45.3112 11.4203C47.5038 12.9167 47.817 13.9018 47.8953 16.7535C48.0049 21.2113 48.0174 30.4314 47.983 35.0995C47.983 35.3191 47.983 35.5261 47.983 35.7269C47.983 38.5127 47.983 39.5542 44.8507 41.6373C41.0325 44.194 31.9083 49.4205 27.9021 51.4502C25.9037 52.473 24.7166 53 23.5326 53ZM22.4927 1.07091C22.0959 1.16555 21.7112 1.30554 21.3463 1.48814C16.4099 3.88806 8.10314 8.76631 4.25047 11.2133C0.914622 13.3434 0.93968 14.9967 0.93968 18.2907V18.8993C0.93968 21.4717 1.01172 24.794 1.08063 27.997C1.12762 30.193 1.17147 32.2635 1.19339 34.0203C1.25291 39.5291 2.0485 39.9934 3.75871 41.0412L4.31312 41.3863C8.54166 44.0842 16.1029 48.6331 20.1936 50.8479C23.3729 52.5702 23.9523 52.4165 27.4699 50.6158C31.4572 48.5923 40.522 43.4003 44.3277 40.853C47.0339 39.0491 47.037 38.4123 47.0402 35.7238C47.0402 35.523 47.0402 35.3128 47.0402 35.0963C47.0746 30.4345 47.0621 21.2302 46.9525 16.7786C46.8898 14.1904 46.6956 13.5128 44.7787 12.2015C40.9104 9.54746 29.8159 2.95005 26.1481 1.37521C24.9835 0.927569 23.7163 0.818815 22.4927 1.06149V1.07091Z" fill="black"/>
<path fill-rule="evenodd" clip-rule="evenodd" d="M37.2576 34.8643L24.6779 41.6278C24.4414 41.7196 24.1891 41.7635 23.9355 41.7569C23.682 41.7503 23.4323 41.6934 23.2009 41.5894L10.733 34.9316C9.61409 34.3354 9.73557 32.6878 10.6243 32.2166L13.038 30.9023L23.2073 36.3324C23.4387 36.4364 23.6884 36.4933 23.9419 36.4999C24.1954 36.5065 24.4478 36.4627 24.6843 36.3709L34.8664 30.8959L37.1042 32.1044C38.2934 32.7519 38.4245 34.2424 37.2576 34.8643Z" fill="black"/>
<path fill-rule="evenodd" clip-rule="evenodd" d="M37.2582 27.8732L24.6784 34.6367C24.4419 34.7285 24.1896 34.7724 23.9361 34.7658C23.6826 34.7592 23.4329 34.7022 23.2014 34.5983L10.7271 27.9437C9.60823 27.3475 9.72971 25.6999 10.6185 25.2286L13.0865 23.8856L23.2078 29.2804C23.4392 29.3844 23.6889 29.4413 23.9425 29.4479C24.196 29.4545 24.4483 29.4106 24.6848 29.3188L34.8094 23.8695L37.1079 25.1068C38.294 25.7543 38.425 27.2513 37.2582 27.8732Z" fill="black"/>
<path fill-rule="evenodd" clip-rule="evenodd" d="M24.6782 11.413L37.1205 18.1221C38.3098 18.7632 38.4281 20.2602 37.274 20.882L24.6782 27.6456C24.4437 27.739 24.193 27.7851 23.9407 27.7813C23.6883 27.7774 23.4392 27.7237 23.2076 27.6231L10.7238 20.9493C9.60806 20.3531 9.72954 18.7055 10.6151 18.2343L22.6674 11.6727C23.3323 11.3137 24.0037 11.0572 24.6622 11.413H24.6782Z" fill="black"/>
</svg>
