<svg width="33" height="47" viewBox="0 0 33 47" fill="none" xmlns="http://www.w3.org/2000/svg">
<path d="M16.45 22.325C14.8919 22.325 13.3975 21.706 12.2957 20.6043C11.194 19.5025 10.575 18.0081 10.575 16.45C10.575 14.8919 11.194 13.3975 12.2957 12.2957C13.3975 11.194 14.8919 10.575 16.45 10.575C18.0081 10.575 19.5025 11.194 20.6043 12.2957C21.706 13.3975 22.325 14.8919 22.325 16.45C22.325 17.2215 22.173 17.9855 21.8778 18.6983C21.5825 19.4111 21.1498 20.0587 20.6043 20.6043C20.0587 21.1498 19.4111 21.5825 18.6983 21.8778C17.9855 22.173 17.2215 22.325 16.45 22.325ZM16.45 0C12.0872 0 7.90307 1.73312 4.81809 4.81809C1.73312 7.90307 0 12.0872 0 16.45C0 28.7875 16.45 47 16.45 47C16.45 47 32.9 28.7875 32.9 16.45C32.9 12.0872 31.1669 7.90307 28.0819 4.81809C24.9969 1.73312 20.8128 0 16.45 0Z" fill="black"/>
</svg>
