<svg width="40" height="40" viewBox="0 0 40 40" fill="none" xmlns="http://www.w3.org/2000/svg">
<path d="M24.7962 22.1111C27.6176 26.1667 31.8495 30.3889 38 35.7223C31.6802 30.3333 26.7148 27.3333 21.8056 26.7223C20.5078 29.5 20 32.3888 20 36C20 32.3888 19.5485 29.5 18.2507 26.7223C13.3417 27.3333 8.31975 30.3333 2 35.7223C8.2069 30.3889 12.4389 26.1667 15.2038 22.1111C12.8385 19.3554 10.2329 16.8087 7.41693 14.5C10.8589 17.3889 13.7367 19.3334 16.3888 20.2223C19.0972 15.6111 20 11 20 5C20 11 20.9593 15.6111 23.6112 20.2223C26.3198 19.3334 29.1974 17.3889 32.6395 14.5C29.8209 16.8247 27.1979 19.37 24.7962 22.1111Z" stroke="url(#paint0_linear_9_952)" stroke-linecap="round" stroke-linejoin="round"/>
<defs>
<linearGradient id="paint0_linear_9_952" x1="13.3143" y1="9.42857" x2="29.8538" y2="38.7195" gradientUnits="userSpaceOnUse">
<stop stop-color="#4EDEEF"/>
<stop offset="1" stop-color="#4848CC"/>
</linearGradient>
</defs>
</svg>
