<svg width="40" height="40" viewBox="0 0 40 40" fill="none" xmlns="http://www.w3.org/2000/svg">
<path d="M17.7868 25.3431C19.4001 28.0427 20 31.9572 20 37.5C20 31.9572 20.5999 28.0427 22.2132 25.3431C25.2628 26.1113 28.455 28.455 32.3744 32.3744C28.455 28.455 26.1112 25.2628 25.3431 22.2132C28.0427 20.5999 31.9572 20 37.5 20C31.9572 20 28.0427 19.4001 25.3431 17.7868C26.1112 14.7372 28.455 11.545 32.3744 7.62565C28.455 11.545 25.2628 13.8888 22.2132 14.6569C20.5999 11.9573 20 8.04284 20 2.5C20 8.04284 19.4001 11.9573 17.7868 14.6569C14.7372 13.8888 11.545 11.545 7.62561 7.62565C11.545 11.545 13.8887 14.7372 14.6569 17.7868C11.9573 19.4001 8.04282 20 2.5 20C8.04283 20 11.9573 20.5999 14.6569 22.2132C13.8888 25.2628 11.545 28.455 7.62561 32.3744C11.545 28.455 14.7372 26.1112 17.7868 25.3431Z" stroke="url(#paint0_linear_9_940)" stroke-miterlimit="10"/>
<defs>
<linearGradient id="paint0_linear_9_940" x1="13.5" y1="7.5" x2="33.5" y2="38" gradientUnits="userSpaceOnUse">
<stop stop-color="#4EDEEF"/>
<stop offset="1" stop-color="#4848CC"/>
</linearGradient>
</defs>
</svg>
