<svg width="110" height="55" viewBox="0 0 110 55" fill="none" xmlns="http://www.w3.org/2000/svg">
<path d="M13.6577 7.90816C13.1398 7.37833 12.4202 7.05291 11.619 7.05291C11.2414 7.05139 10.8673 7.12638 10.5195 7.27337C10.1716 7.42036 9.85714 7.6363 9.59502 7.90816H9.58127C9.31095 8.1805 9.09705 8.50354 8.95186 8.85873C8.80667 9.21392 8.73304 9.59428 8.73518 9.978C8.72987 10.7498 9.03085 11.4921 9.5721 12.0423L9.58585 12.057C9.84907 12.3268 10.164 12.5407 10.5117 12.6861C10.8595 12.8315 11.2329 12.9053 11.6098 12.9031C12.411 12.9031 13.1297 12.5822 13.6485 12.057L13.654 12.0423C14.1728 11.5217 14.479 10.7929 14.479 9.978C14.484 9.20529 14.1839 8.46181 13.6439 7.90908H13.6485L13.6577 7.90816ZM11.619 47.9482C12.4202 47.9482 13.1388 47.6163 13.6577 47.0957L13.6632 47.081C14.182 46.5622 14.4882 45.8288 14.4882 45.0231C14.4882 44.1981 14.1719 43.4776 13.6632 42.9496H13.6577C13.1398 42.4152 12.4202 42.0916 11.619 42.0916C11.241 42.0893 10.8665 42.1643 10.5185 42.3118C10.1705 42.4593 9.85624 42.6764 9.59502 42.9496H9.58127C9.04116 43.5042 8.7406 44.2489 8.74435 45.0231C8.74074 45.7926 9.04158 46.5324 9.58127 47.081L9.59502 47.0957C9.85872 47.3652 10.1736 47.5793 10.5211 47.7256C10.8687 47.8718 11.2419 47.9481 11.619 47.9482ZM27.2794 39.0867C27.6473 38.9891 27.9919 38.8186 28.2927 38.5852C28.5934 38.3518 28.8442 38.0604 29.0302 37.7282L29.0833 37.6256C29.4228 36.9732 29.504 36.2168 29.3107 35.5072C29.1218 34.7775 28.669 34.1303 27.9705 33.7288L27.9302 33.7013C27.2798 33.3344 26.5105 33.2402 25.7907 33.4392C25.0757 33.6207 24.434 34.1056 24.0417 34.8022C23.6603 35.4776 23.5565 36.2747 23.752 37.0252C23.9497 37.7703 24.4301 38.4089 25.0913 38.8053H25.0958C25.7833 39.2087 26.5598 39.2792 27.2803 39.0803L27.2794 39.0867ZM14.5588 24.5117C13.8043 23.7463 12.7621 23.2651 11.6108 23.2651C11.062 23.2661 10.519 23.3768 10.0137 23.5908C9.50836 23.8047 9.05092 24.1175 8.66827 24.5108C7.9166 25.2753 7.4546 26.3304 7.4546 27.5037C7.45147 28.6256 7.88702 29.7043 8.66827 30.5095C9.41993 31.2703 10.4594 31.747 11.6016 31.747C12.7438 31.747 13.7952 31.2703 14.5496 30.5095C15.3317 29.7044 15.768 28.6253 15.7651 27.5028C15.7703 26.384 15.3334 25.3083 14.5496 24.5099L14.5588 24.5117ZM12.9088 19.5269C14.5546 19.8058 16.0688 20.6018 17.2318 21.7993H17.2409C17.4258 21.9881 17.6011 22.1861 17.7662 22.3924L20.6353 20.703C20.2579 19.5403 20.2254 18.2932 20.5418 17.1124C20.9507 15.5541 21.9443 14.1607 23.4312 13.2872L23.4798 13.256C24.1765 12.8512 24.9467 12.5891 25.7457 12.4847C26.5447 12.3804 27.3564 12.436 28.1337 12.6482C28.923 12.8644 29.6616 13.2349 30.3067 13.7384C30.9518 14.2419 31.4907 14.8684 31.892 15.5816V15.5862C32.7463 17.0895 32.9187 18.8147 32.5126 20.3675C32.1056 21.9258 31.1101 23.3283 29.6233 24.1973L29.2309 24.4329H29.1915C27.8613 25.0765 26.3434 25.2181 24.9171 24.8317C23.7549 24.5125 22.711 23.8614 21.9132 22.958L19.0477 24.6419C19.3882 25.5543 19.5615 26.5207 19.5592 27.4946C19.5592 28.4992 19.3777 29.4691 19.0477 30.3601L21.9132 32.0403C22.7318 31.1072 23.7777 30.482 24.9171 30.1657C26.4479 29.7404 28.1419 29.921 29.6233 30.8001L29.7186 30.8459V30.8505C31.1046 31.7031 32.1061 33.0598 32.5126 34.6354C32.9369 36.2477 32.7142 37.9619 31.892 39.4122L31.8407 39.5176H31.8343C31.0147 40.912 29.6867 41.9344 28.1291 42.3702C26.5983 42.7809 24.9024 42.6058 23.422 41.7396V41.7277C21.9899 40.8852 20.9507 39.5087 20.5327 37.9006C20.2157 36.7217 20.2482 35.4762 20.6262 34.3155L17.757 32.6307C17.5916 32.8338 17.4163 33.0287 17.2318 33.2146L17.2226 33.2237C16.0749 34.3971 14.5643 35.2129 12.8996 35.4833V38.8567C14.0772 39.1107 15.1538 39.7059 15.9952 40.5681L15.9998 40.5772C17.1208 41.7121 17.8148 43.2942 17.8148 45.0322C17.8177 46.6952 17.1657 48.2924 15.9998 49.4781L15.9952 49.4964C14.8677 50.6276 13.3185 51.3334 11.6108 51.3334C9.91127 51.3334 8.35843 50.6276 7.23277 49.4863H7.22818V49.468C6.06104 48.2825 5.40797 46.6849 5.41043 45.0212C5.41043 43.2823 6.1071 41.7011 7.22818 40.5662V40.5571H7.23277C8.06967 39.6905 9.14688 39.0945 10.3256 38.8457V35.4723C8.65268 35.201 7.15393 34.3861 6.01727 33.2127L6.00535 33.2036C4.50688 31.6815 3.6667 29.6314 3.66602 27.4955C3.66602 25.268 4.56252 23.2532 5.99435 21.7911H6.00627C7.16724 20.5934 8.68007 19.7973 10.3247 19.5187V16.1591C9.14986 15.8972 8.0758 15.3013 7.23185 14.4431H7.22727V14.4339C6.05958 13.245 5.40662 11.6444 5.40952 9.978C5.40785 8.3121 6.06064 6.71221 7.22727 5.523L7.24102 5.51841C7.80857 4.93328 8.48772 4.46792 9.23829 4.14987C9.98886 3.83182 10.7956 3.66754 11.6108 3.66675C13.3194 3.66675 14.8677 4.37258 15.9961 5.51841V5.523H16.0007C17.1218 6.66425 17.8157 8.24825 17.8157 9.978C17.8171 11.6433 17.1655 13.2428 16.0007 14.433L15.9961 14.4422C15.1601 15.2892 14.0931 15.8951 12.9005 16.1582V19.5177L12.9088 19.5269ZM29.0283 17.2857L29.0045 17.249C28.6242 16.5986 28.0048 16.1226 27.2784 15.9226C26.9127 15.822 26.5305 15.7959 26.1544 15.8458C25.7784 15.8957 25.4163 16.0206 25.0894 16.2132H25.094C24.4047 16.611 23.9436 17.2627 23.7502 17.9915C23.5527 18.7419 23.6566 19.5397 24.0398 20.2144L24.0527 20.2327C24.4496 20.9202 25.0821 21.3832 25.7879 21.5692C26.4965 21.7727 27.2876 21.6866 27.9678 21.2832L28.0044 21.2649C28.6736 20.8579 29.1228 20.2144 29.3079 19.5086C29.4977 18.7798 29.4225 17.9832 29.0283 17.2857ZM41.7627 18.2729H44.9646V28.2206L49.5828 23.0231H53.4328L47.8576 29.0456L53.4374 36.6667H49.7707L44.9563 29.8486V36.6667H41.7535V18.2637M57.1334 29.899C57.1334 31.593 58.3305 34.0552 61.2153 34.0552C63 34.0552 64.1743 33.1092 64.7839 31.8689C65.1029 31.2667 65.2495 30.6222 65.299 29.9439C65.3234 29.2841 65.1974 28.6274 64.9305 28.0235C64.3695 26.7337 63.1228 25.6154 61.1923 25.6154C58.6028 25.6154 57.1343 27.7512 57.1343 29.8669V29.8898L57.1334 29.899ZM68.4743 36.6667H65.2706V34.7023C64.4181 36.2909 62.6324 37.0884 60.7496 37.0884C56.4477 37.0884 53.9296 33.6784 53.9296 29.8266C53.9296 25.5247 56.9849 22.5904 60.7496 22.5904C63.1934 22.5904 64.6839 23.9086 65.2706 25.004V23.0121H68.4743V36.6667ZM72.1016 25.5256H70.4516V23.0139H72.1016V22.2439C72.1016 18.1867 75.133 17.942 77.432 17.9154V20.4234C76.6235 20.4234 75.3054 20.4234 75.3054 22.3429V23.0121H77.432V25.5237H75.3054V36.6667H72.1016V25.5256ZM79.6183 18.2637H82.8193V28.2114L87.4393 23.0139H91.2893L85.7141 29.0364L91.2993 36.6667H87.6327L82.8184 29.8486V36.6667H79.6174L79.6183 18.2637ZM94.999 29.899C94.999 31.593 96.1953 34.0552 99.0809 34.0552C100.863 34.0552 102.038 33.1092 102.656 31.8689C102.977 31.2667 103.114 30.6222 103.171 29.9439C103.193 29.2958 103.073 28.6221 102.802 28.0235C102.252 26.7337 100.996 25.6154 99.0644 25.6154C96.4739 25.6154 95.0063 27.7512 95.0063 29.8669V29.8898L94.999 29.899ZM106.329 36.6667H103.126V34.7023C102.271 36.2909 100.486 37.0884 98.6052 37.0884C94.3033 37.0884 91.7879 33.6784 91.7879 29.8266C91.7879 25.5247 94.8404 22.5904 98.6052 22.5904C101.048 22.5904 102.54 23.9086 103.126 25.004V23.0121H106.329V36.6667Z" fill="white"/>
</svg>
