<svg width="159" height="50" viewBox="0 0 159 50" fill="none" xmlns="http://www.w3.org/2000/svg">
<path d="M44.125 25.2377C44.125 22.6194 43.5957 20.0266 42.5673 17.6076C41.5389 15.1885 40.0316 12.9905 38.1313 11.1391C36.2311 9.28759 33.9751 7.81893 31.4923 6.81692C29.0096 5.81492 26.3485 5.29919 23.6612 5.29919C18.2338 5.29919 13.0287 7.39985 9.191 11.1391C5.35328 14.8783 3.19727 19.9497 3.19727 25.2377C3.19727 30.5257 5.35328 35.5972 9.191 39.3364C13.0287 43.0756 18.2338 45.1762 23.6612 45.1762C26.3485 45.1762 29.0096 44.6605 31.4923 43.6585C33.9751 42.6565 36.2311 41.1878 38.1313 39.3364C40.0316 37.4849 41.5389 35.2869 42.5673 32.8679C43.5957 30.4488 44.125 27.8561 44.125 25.2377Z" stroke="#C6E3A0" stroke-width="2"/>
<path d="M10.407 13.9263C4.08907 20.832 4.65272 30.7213 11.1011 37.3484C13.036 39.3361 16.1024 41.4386 18.5337 39.455C21.6968 36.8812 23.9304 32.705 26.5384 29.5328C29.2094 26.2951 32.7974 23.5861 36.0405 20.7787C38.7999 18.3935 38.9443 15.9153 36.4738 13.3443C29.3188 5.89348 17.3222 6.37299 10.407 13.9263Z" stroke="#C6E3A0" stroke-width="2"/>
<path d="M26.8445 17.7951C19.0628 14.9714 12.2064 23.0574 16.8376 29.8115C17.4938 30.7664 19.0418 32.5902 20.1859 30.9304C23.3827 26.2746 25.3891 24.2746 28.9603 21.3648C30.9163 19.7705 28.0896 18.2459 26.8445 17.7951Z" stroke="#C6E3A0" stroke-width="2"/>
<path d="M44.125 25.2377C44.125 27.8561 43.5957 30.4488 42.5673 32.8679C41.5389 35.2869 40.0316 37.4849 38.1313 39.3364C36.2311 41.1878 33.9751 42.6565 31.4923 43.6585C29.0096 44.6605 26.3485 45.1762 23.6612 45.1762C18.2338 45.1762 13.0287 43.0756 9.191 39.3364C5.35328 35.5972 3.19727 30.5257 3.19727 25.2377C3.19727 19.9497 5.35328 14.8783 9.191 11.1391C13.0287 7.39985 18.2338 5.29919 23.6612 5.29919C26.3485 5.29919 29.0096 5.81492 31.4923 6.81692C33.9751 7.81893 36.2311 9.28759 38.1313 11.1391C40.0316 12.9905 41.5389 15.1885 42.5673 17.6076C43.5957 20.0266 44.125 22.6194 44.125 25.2377ZM10.4069 13.9262C4.08901 20.832 4.65266 30.7213 11.101 37.3484C13.0359 39.3361 16.1023 41.4385 18.5336 39.4549C21.6968 36.8812 23.9304 32.7049 26.5383 29.5328C29.2093 26.2951 32.7973 23.5861 36.0404 20.7787C38.7998 18.3935 38.9442 15.9153 36.4737 13.3443C29.3187 5.89346 17.3222 6.37296 10.4069 13.9262Z" fill="#8CC640"/>
<path d="M10.407 13.9263C17.3222 6.37299 29.3188 5.89348 36.4738 13.3443C38.9443 15.9153 38.7999 18.3935 36.0405 20.7787C32.7974 23.5861 29.2094 26.2951 26.5384 29.5328C23.9304 32.705 21.6968 36.8812 18.5337 39.455C16.1024 41.4386 13.036 39.3361 11.1011 37.3484C4.65272 30.7213 4.08907 20.832 10.407 13.9263ZM26.8454 17.7951C19.0637 14.9713 12.2073 23.0574 16.8385 29.8115C17.4947 30.7664 19.0426 32.5902 20.1868 30.9304C23.3836 26.2746 25.39 24.2746 28.9612 21.3648C30.9172 19.7705 28.0905 18.2459 26.8454 17.7951Z" fill="white"/>
<path d="M119.775 16.8811L122.766 16.2172C122.786 16.2129 122.807 16.2131 122.827 16.2177C122.847 16.2223 122.866 16.2312 122.882 16.2437C122.898 16.2563 122.911 16.2722 122.92 16.2903C122.929 16.3084 122.934 16.3282 122.934 16.3483L122.93 33.9836C122.93 34.0195 122.915 34.0539 122.889 34.0792C122.863 34.1046 122.828 34.1188 122.791 34.1188H119.784C119.747 34.1188 119.711 34.1046 119.685 34.0792C119.659 34.0539 119.645 34.0195 119.645 33.9836L119.666 17.0123C119.666 16.9816 119.677 16.9518 119.697 16.928C119.717 16.9042 119.744 16.8876 119.775 16.8811ZM58.9934 27.5615L56.8398 27.5574C56.6463 27.5574 56.5355 27.4631 56.5075 27.2746L56.1626 24.918C56.1429 24.7841 56.2032 24.7186 56.3434 24.7213L62.6698 24.8074C62.7455 24.8074 62.7833 24.8442 62.7833 24.918L62.796 32.5983C62.7988 32.7322 62.7399 32.8319 62.6193 32.8975C56.8061 36.1024 50.4503 34.041 49.4576 27.3196C48.3345 19.7295 55.5779 13.7377 62.5226 18.8606C62.5441 18.877 62.5619 18.8974 62.5751 18.9206C62.5883 18.9439 62.5965 18.9695 62.5993 18.9959C62.602 19.0223 62.5992 19.049 62.5911 19.0744C62.583 19.0997 62.5697 19.1232 62.552 19.1434L60.9452 20.9795C60.8442 21.0942 60.7307 21.1079 60.6045 21.0205C57.7484 19.0492 54.3538 19.4221 53.5588 22.9713C52.7849 26.418 52.9994 33.3688 59.0229 31.3852C59.1435 31.347 59.2037 31.2664 59.2037 31.1434V27.7664C59.2037 27.6325 59.1336 27.5642 58.9934 27.5615Z" fill="white"/>
<path d="M26.8445 17.7951C28.0896 18.2459 30.9163 19.7705 28.9603 21.3648C25.3891 24.2746 23.3827 26.2746 20.1859 30.9304C19.0418 32.5902 17.4938 30.7664 16.8376 29.8115C12.2064 23.0574 19.0628 14.9714 26.8445 17.7951Z" fill="#8CC640"/>
<path d="M98.3195 22.7869C101.462 20.5492 105.104 21.0983 105.151 25.4959C105.179 28.2882 105.177 31.0833 105.146 33.8811C105.144 34.0505 105.055 34.1325 104.881 34.127L101.996 34.0451C101.875 34.0423 101.815 33.9822 101.815 33.8647C101.781 31.0451 101.763 28.2281 101.76 25.4139C101.756 23.3893 99.5898 24.5697 98.6728 25.2541C98.5803 25.3224 98.534 25.4139 98.534 25.5287V33.7787C98.534 33.959 98.4401 34.0519 98.2522 34.0574L95.354 34.1393C95.1605 34.1448 95.0638 34.0533 95.0638 33.8647V22.3606C95.0638 22.2131 95.1367 22.1175 95.2825 22.0738L97.8273 21.332C98.0152 21.2746 98.1036 21.3429 98.0923 21.5369L98.025 22.6311C98.0082 22.8852 98.1064 22.9371 98.3195 22.7869ZM110.387 22.3115C116.482 19.0779 119.044 25.9918 117.681 30.4139C116.647 33.7773 114.225 34.9617 110.417 33.9672C110.288 33.9344 110.225 33.9836 110.228 34.1147L110.341 38.3156C110.344 38.4795 110.264 38.582 110.101 38.6229L107.603 39.2746C107.177 39.3839 106.982 39.224 107.018 38.7951C107.224 36.4672 107.09 34.1639 107.069 32.0492C107.035 28.9289 107.039 25.7555 107.081 22.5287C107.084 22.127 107.289 21.8811 107.695 21.791L109.87 21.3156C110.024 21.28 110.101 21.3401 110.101 21.4959V22.1475C110.101 22.3606 110.197 22.4153 110.387 22.3115ZM114.259 25.9918C114.263 25.7652 114.222 25.54 114.137 25.3291C114.052 25.1181 113.926 24.9255 113.764 24.7622C113.603 24.5989 113.41 24.4682 113.197 24.3775C112.984 24.2868 112.755 24.2379 112.522 24.2336L112.118 24.2262C111.886 24.2219 111.655 24.2622 111.438 24.3449C111.222 24.4276 111.024 24.551 110.856 24.7082C110.689 24.8653 110.555 25.0531 110.462 25.2607C110.369 25.4684 110.318 25.6919 110.314 25.9184L110.234 29.9586C110.23 30.1852 110.271 30.4104 110.356 30.6213C110.441 30.8323 110.568 31.0249 110.729 31.1882C110.89 31.3515 111.083 31.4822 111.296 31.5729C111.509 31.6636 111.739 31.7125 111.971 31.7168L112.375 31.7246C112.608 31.7289 112.839 31.6886 113.055 31.6059C113.272 31.5232 113.469 31.3998 113.637 31.2426C113.805 31.0855 113.939 30.8977 114.032 30.6901C114.125 30.4824 114.175 30.2589 114.18 30.0324L114.259 25.9922V25.9918ZM67.7982 22.7992C68.7236 21.7363 69.9028 21.332 71.3358 21.5861C71.5517 21.6243 71.6274 21.7459 71.5629 21.9508L70.8184 24.3279C70.7623 24.5055 70.6417 24.5683 70.4566 24.5164C69.4275 24.2268 68.5638 24.4672 67.8655 25.2377C67.7702 25.3442 67.7225 25.4686 67.7225 25.6106V33.9139C67.7225 34.0505 67.6524 34.1188 67.5122 34.1188H64.6729C64.4626 34.1188 64.3574 34.0164 64.3574 33.8115V22.332C64.3574 22.1844 64.4303 22.0915 64.5762 22.0533L67.285 21.3729C67.5206 21.3156 67.6019 21.3989 67.529 21.6229C67.414 21.9727 67.379 22.3292 67.4238 22.6926C67.4659 23.0068 67.5907 23.0423 67.7982 22.7992ZM132.387 33.2377C132.386 33.2186 132.379 33.2002 132.368 33.1845C132.357 33.1688 132.342 33.1564 132.324 33.1487C132.306 33.1411 132.286 33.1384 132.267 33.1411C132.247 33.1438 132.229 33.1517 132.214 33.1639C129.901 35.168 125.202 34.7787 125.194 31.041C125.185 28.1284 125.166 25.2117 125.135 22.291C125.135 22.1243 125.218 22.0259 125.383 21.9959L128.164 21.4836C128.374 21.4453 128.475 21.53 128.466 21.7377C128.361 24.3442 128.046 31.2049 129.211 31.7623C130.128 32.2008 131.255 31.6475 131.819 30.9139C131.914 30.791 131.962 30.6516 131.962 30.4959L131.932 22.2992C131.93 22.1708 131.994 22.0929 132.126 22.0656L134.822 21.5C135.018 21.459 135.117 21.5355 135.117 21.7295L135.125 33.3975C135.125 33.5478 135.049 33.6421 134.898 33.6803L132.66 34.2541C132.489 34.2978 132.402 34.2336 132.399 34.0615L132.387 33.2377Z" fill="white"/>
<path d="M74.7844 29.2009C74.8938 32.537 78.263 32.5902 80.3915 30.914C80.5317 30.8047 80.6508 30.8238 80.749 30.9714L81.8258 32.5615C81.9184 32.6982 81.8973 32.8156 81.7627 32.914C80.2709 33.996 78.6556 34.5028 76.917 34.4345C68.5169 34.1107 69.3708 19.8156 78.2715 21.6804C81.4346 22.3402 82.3011 26.0329 82.074 28.7132C82.0628 28.8607 81.9815 28.9345 81.83 28.9345L74.9905 28.9919C74.8503 28.9946 74.7816 29.0643 74.7844 29.2009ZM75.083 26.541L78.3976 26.5329C78.4427 26.5318 78.4854 26.5136 78.5169 26.4822C78.5483 26.4508 78.5659 26.4087 78.5659 26.3648V26.0083C78.5646 25.4671 78.3916 24.9485 78.0847 24.5665C77.7779 24.1845 77.3624 23.9705 76.9296 23.9714H76.5342C76.3199 23.9718 76.1077 24.0251 75.9099 24.1281C75.712 24.2312 75.5324 24.3819 75.3812 24.5718C75.2301 24.7618 75.1103 24.9871 75.0289 25.2349C74.9474 25.4828 74.9058 25.7484 74.9064 26.0165V26.373C74.9064 26.3954 74.911 26.4176 74.9199 26.4383C74.9288 26.4589 74.9419 26.4776 74.9584 26.4933C74.9748 26.509 74.9943 26.5213 75.0158 26.5295C75.0372 26.5377 75.06 26.5416 75.083 26.541Z" fill="white"/>
<path d="M86.5709 29.1927C86.2891 32.5738 90.1337 32.4508 92.1317 30.8935C92.2719 30.7869 92.3883 30.8074 92.4808 30.9549L93.4693 32.5246C93.5646 32.6804 93.538 32.8129 93.3894 32.9222C87.1556 37.5041 80.9975 31.7336 83.2815 25.1066C84.3499 22 87.6645 20.75 90.63 21.9099C93.3095 22.9631 93.9067 26.0656 93.789 28.6435C93.7806 28.8074 93.6922 28.8907 93.524 28.8935L86.7644 29.0123C86.6438 29.0151 86.5793 29.0752 86.5709 29.1927ZM86.7013 26.5328L90.1673 26.541C90.1941 26.541 90.2198 26.5307 90.2387 26.5122C90.2576 26.4938 90.2683 26.4687 90.2683 26.4427L90.2725 26.0164C90.2731 25.7484 90.2295 25.4828 90.1442 25.2349C90.0589 24.9871 89.9336 24.7617 89.7754 24.5718C89.6172 24.3819 89.4292 24.2311 89.2222 24.1281C89.0152 24.0251 88.7932 23.9718 88.5689 23.9713H88.3165C87.8637 23.9704 87.4289 24.1844 87.1079 24.5664C86.7868 24.9484 86.6058 25.467 86.6045 26.0082L86.6003 26.4345C86.6003 26.4605 86.611 26.4856 86.6299 26.504C86.6488 26.5225 86.6745 26.5328 86.7013 26.5328ZM140.517 22.5164C142.738 21.4672 144.522 20.873 146.457 22.9222C146.555 23.026 146.654 23.0287 146.755 22.9304C148.661 21.082 153.326 20.6804 153.427 24.3115C153.516 27.4836 153.553 30.6571 153.536 33.832C153.533 34.0233 153.435 34.1189 153.242 34.1189H150.655C150.489 34.1189 150.405 34.0383 150.402 33.8771L150.255 24.9304C150.252 24.7584 150.181 24.5942 150.058 24.4714C149.934 24.3487 149.767 24.2768 149.59 24.2705C148.659 24.235 147.859 24.5424 147.189 25.1927C147.096 25.2828 147.05 25.3907 147.05 25.5164L147.008 33.8279C147.008 33.9727 146.933 34.0437 146.785 34.041L144.059 34.0041C143.924 34.0041 143.857 33.9372 143.857 33.8033C143.86 30.9071 143.856 28.0164 143.845 25.1312C143.836 23.5082 141.598 24.4427 140.896 24.9058C140.764 24.9932 140.697 25.1148 140.694 25.2705L140.597 33.8853C140.597 34.0219 140.527 34.0902 140.387 34.0902L137.661 34.082C137.482 34.082 137.392 33.9946 137.392 33.8197L137.316 22.4345C137.316 22.276 137.395 22.1763 137.552 22.1353L140.16 21.4836C140.37 21.4317 140.451 21.5082 140.404 21.7131L140.269 22.3238C140.216 22.556 140.299 22.6202 140.517 22.5164Z" fill="white"/>
</svg>
