<svg width="163" height="38" viewBox="0 0 163 38" fill="none" xmlns="http://www.w3.org/2000/svg">
<g clip-path="url(#clip0_9_889)">
<path d="M6.19377 27.9043H3.25977V30.8724H6.19377V27.9043Z" fill="#E52521"/>
<path d="M23.7999 30.8723H20.8638V7.12769H23.7978L23.7999 30.8723ZM17.9319 30.8723H14.9958V7.12769H17.9298L17.9319 30.8723ZM29.6679 21.2249H26.7318V16.775H29.6658L29.6679 21.2249ZM12.0639 30.8723H9.12777V7.12769H12.0639V30.8723ZM6.19594 27.9042H3.25977V7.12769H6.19377L6.19594 27.9042Z" fill="#FFCC07"/>
<mask id="mask0_9_889" style="mask-type:luminance" maskUnits="userSpaceOnUse" x="0" y="-64" width="163" height="166">
<path d="M163 -63.4464H0V101.446H163V-63.4464Z" fill="white"/>
</mask>
<g mask="url(#mask0_9_889)">
<path d="M142.788 15.1569C143.543 15.1463 144.296 15.22 145.035 15.3767C145.554 15.4835 146.06 15.6456 146.546 15.8604L146.048 17.6457C145.638 17.4442 145.218 17.2652 144.789 17.1092C144.175 16.9027 143.53 16.806 142.883 16.8234C142.211 16.7912 141.541 16.92 140.927 17.1994C140.683 17.3293 140.483 17.5298 140.352 17.7753C140.221 18.0207 140.165 18.3001 140.191 18.5779C140.185 18.8529 140.267 19.1226 140.423 19.3474C140.587 19.5736 140.794 19.763 141.034 19.9036C141.313 20.0735 141.61 20.2128 141.919 20.3191L143.005 20.6423L144.461 21.126C144.924 21.2928 145.36 21.5276 145.754 21.823C146.171 22.1255 146.506 22.5286 146.728 22.9956C146.951 23.4625 147.055 23.9785 147.03 24.4964C147.058 25.121 146.915 25.7413 146.615 26.2883C146.345 26.7601 145.974 27.1644 145.528 27.4711C145.051 27.7907 144.521 28.0208 143.964 28.1504C143.35 28.2358 142.728 28.2476 142.112 28.1856C141.573 28.2208 141.032 28.2208 140.493 28.1856C140.087 28.1342 139.685 28.0571 139.289 27.9548C138.975 27.8782 138.669 27.776 138.372 27.6492C138.124 27.5393 137.884 27.4137 137.652 27.2732L138.354 25.4814C138.511 25.6099 138.679 25.724 138.856 25.8222C139.117 25.967 139.388 26.0926 139.667 26.1981C140.02 26.3362 140.383 26.4443 140.754 26.5213C141.198 26.6069 141.65 26.6488 142.103 26.6466C142.832 26.6967 143.556 26.5078 144.17 26.108C144.397 25.9361 144.58 25.7111 144.702 25.4523C144.824 25.1934 144.883 24.9084 144.872 24.6217C144.882 24.379 144.835 24.1373 144.735 23.9164C144.635 23.6955 144.484 23.5018 144.296 23.351C143.69 22.9324 143.014 22.6292 142.301 22.4561L140.754 21.9351C140.29 21.77 139.852 21.5414 139.45 21.2557C139.066 20.9825 138.746 20.6275 138.513 20.2158C138.258 19.7314 138.135 19.1877 138.154 18.6394C138.121 18.129 138.217 17.6184 138.435 17.1565C138.652 16.6946 138.983 16.2968 139.395 16.0011C140.415 15.3778 141.598 15.0833 142.788 15.1569ZM126.949 15.3174V23.8368C126.938 24.2619 126.999 24.6857 127.129 25.09C127.227 25.3971 127.4 25.6744 127.631 25.8969C127.845 26.1 128.104 26.2472 128.387 26.3256C128.691 26.4124 129.006 26.4546 129.322 26.451C130.137 26.4903 130.941 26.2502 131.604 25.7694C132.22 25.2897 132.724 24.6787 133.08 23.9798V15.3174H135.218V27.8492H133.332L133.132 25.5957C132.771 26.3603 132.204 27.006 131.495 27.4579C130.661 27.9811 129.69 28.2371 128.709 28.1922C128.189 28.2145 127.669 28.131 127.181 27.9467C126.693 27.7624 126.247 27.4811 125.868 27.1193C125.477 26.6723 125.178 26.1497 124.991 25.5829C124.805 25.0161 124.733 24.4169 124.782 23.8215V15.313L126.949 15.3174ZM52.4598 10.5905C53.2037 10.7913 53.9259 11.0667 54.6157 11.4127L53.9637 13.4376C53.3533 13.0262 52.6967 12.6897 52.0077 12.4351C51.1789 12.1574 50.3095 12.0243 49.4367 12.0415C48.6376 12.0318 47.8459 12.1967 47.1156 12.5249C46.3853 12.8531 45.7337 13.3369 45.2052 13.9433C44.6277 14.6083 44.1847 15.3814 43.9012 16.2188C43.5637 17.2153 43.3997 18.2634 43.4165 19.3166C43.4018 20.3437 43.5531 21.3663 43.8642 22.344C44.1262 23.1663 44.5481 23.9273 45.1052 24.5822C45.6282 25.1829 46.2802 25.6544 47.0112 25.9607C47.7981 26.2886 48.6422 26.453 49.4932 26.4444C50.2679 26.4489 51.0383 26.3279 51.7752 26.086C52.4788 25.8443 53.1544 25.5258 53.7898 25.1362L54.4201 26.6598C53.8103 27.121 53.1297 27.4775 52.4054 27.7151C50.3125 28.4005 48.0528 28.3564 45.9876 27.5898C44.9859 27.1888 44.0788 26.579 43.3252 25.8002C42.5403 25.0123 41.928 24.0662 41.5279 23.0234C40.6629 20.5866 40.6629 17.9213 41.5279 15.4845C41.9304 14.4261 42.5527 13.4675 43.3528 12.6733C44.1529 11.879 45.1122 11.2678 46.1658 10.8807C47.2789 10.4663 48.4571 10.2599 49.6431 10.2717C50.5884 10.2525 51.532 10.3612 52.4489 10.5949M74.3278 15.0667C75.0119 15.0627 75.6941 15.141 76.3599 15.2998C76.8948 15.4206 77.4056 15.6325 77.8704 15.9264L77.188 17.8084C76.7475 17.4738 76.2706 17.1912 75.7666 16.9663C75.2397 16.7601 74.6774 16.6622 74.1127 16.6783C73.5707 16.6756 73.0334 16.7794 72.5305 16.9839C72.0319 17.1911 71.5861 17.5098 71.2265 17.9161C70.8395 18.3597 70.544 18.8769 70.3572 19.4375C70.1183 20.1273 70.0027 20.8547 70.016 21.5855C69.928 22.8917 70.3546 24.1801 71.2026 25.1692C71.6303 25.5794 72.136 25.8974 72.6889 26.1038C73.2419 26.3101 73.8305 26.4006 74.4191 26.3696C75.4586 26.3463 76.4698 26.0229 77.3336 25.4374L77.8182 27.0138C77.3347 27.3731 76.7936 27.6453 76.2186 27.8185C75.546 28.0498 74.8425 28.1766 74.1322 28.1944C73.2918 28.201 72.4573 28.0519 71.6699 27.7547C70.9202 27.4747 70.2389 27.0345 69.6726 26.4641C69.0974 25.8744 68.6451 25.1739 68.3425 24.4041C67.6886 22.6248 67.6886 20.6671 68.3425 18.8879C68.6524 18.1136 69.1179 17.4128 69.7095 16.83C70.3073 16.2404 71.0253 15.7901 71.8133 15.5109C72.6253 15.2126 73.4835 15.0637 74.3474 15.0711M115.954 15.0711C116.759 15.068 117.557 15.2171 118.307 15.5109C119.038 15.7958 119.703 16.2282 120.263 16.7816C120.846 17.3621 121.306 18.0572 121.613 18.8241C122.282 20.6255 122.282 22.6115 121.613 24.4129C121.33 25.1758 120.902 25.875 120.353 26.4707C119.795 27.0277 119.129 27.4612 118.397 27.7437C117.617 28.0494 116.787 28.1988 115.952 28.1834C115.152 28.1878 114.358 28.0386 113.613 27.7437C112.885 27.4617 112.224 27.028 111.672 26.4707C111.106 25.8801 110.662 25.1803 110.368 24.4129C109.714 22.6087 109.714 20.6283 110.368 18.8241C110.66 18.06 111.104 17.3648 111.672 16.7816C112.226 16.2281 112.887 15.7956 113.613 15.5109C114.358 15.217 115.152 15.0678 115.952 15.0711M154.75 15.0008C155.539 14.9884 156.322 15.138 157.051 15.4405C157.718 15.7196 158.301 16.1706 158.742 16.7487C159.209 17.3818 159.517 18.1194 159.642 18.8989C159.807 19.8826 159.807 20.8875 159.642 21.8713H151.057C151.153 24.8672 152.573 26.3659 155.317 26.3674C155.977 26.3808 156.635 26.2774 157.26 26.0618C157.815 25.8612 158.346 25.5971 158.842 25.2747L159.453 26.8489C158.919 27.2777 158.309 27.6 157.656 27.7987C156.86 28.0606 156.027 28.1876 155.191 28.1746C154.337 28.2228 153.483 28.0883 152.684 27.7799C151.884 27.4716 151.158 26.9963 150.553 26.385C149.407 25.0431 148.826 23.3006 148.934 21.5306C148.921 20.5976 149.073 19.6697 149.384 18.7911C149.658 18.0279 150.08 17.3276 150.625 16.7311C151.126 16.1763 151.739 15.7363 152.422 15.4405C153.154 15.1445 153.936 14.9952 154.724 15.0008M59.3318 27.9438H57.1911V9.76599H59.3318V27.9438ZM82.5865 27.9438H80.4132V9.76599H82.5865V27.9438ZM90.3171 15.335L85.1576 20.9589L90.6757 27.9438H88.1459L82.8604 21.2096L88.0764 15.335H90.3171ZM95.4766 10.5179V18.4701H104.468V10.5179H106.787V27.9438H104.455V20.207H95.4635V27.9262H93.1446V10.5179H95.4766ZM65.0238 27.8558H62.9026V15.324H65.0238V27.8558ZM115.925 16.6981C115.434 16.6986 114.946 16.7895 114.487 16.9663C114.012 17.1505 113.587 17.445 113.246 17.826C112.851 18.2657 112.551 18.7838 112.366 19.3474C112.13 20.0817 112.021 20.8513 112.042 21.6229C112.022 22.3934 112.13 23.1619 112.361 23.8962C112.545 24.466 112.844 24.9904 113.241 25.4352C113.583 25.8157 114.008 26.1101 114.482 26.2949C114.942 26.4707 115.43 26.5615 115.921 26.5631C116.424 26.5611 116.923 26.4704 117.395 26.2949C117.882 26.1163 118.32 25.8214 118.67 25.4352C119.071 24.99 119.378 24.4661 119.57 23.8962C119.813 23.1642 119.929 22.3949 119.911 21.6229C119.931 20.85 119.815 20.0796 119.57 19.3474C119.375 18.7837 119.069 18.266 118.67 17.826C118.321 17.4384 117.883 17.1432 117.395 16.9663C116.923 16.7897 116.424 16.6989 115.921 16.6981M154.796 16.5816C154.365 16.577 153.938 16.6602 153.539 16.826C153.141 16.9918 152.779 17.2369 152.477 17.5467C151.759 18.348 151.329 19.3702 151.255 20.4488H157.673C157.76 19.9419 157.746 19.4225 157.632 18.9211C157.518 18.4197 157.306 17.9464 157.008 17.5291C156.733 17.2132 156.392 16.964 156.009 16.8C155.626 16.6359 155.211 16.5613 154.796 16.5816ZM64.9173 11.1093C65.0416 11.2399 65.1388 11.3943 65.2034 11.5635C65.268 11.7326 65.2985 11.9131 65.2933 12.0943C65.2981 12.2702 65.2672 12.4452 65.2025 12.6085C65.1378 12.7719 65.0408 12.9201 64.9173 13.0441C64.788 13.1686 64.6356 13.266 64.4688 13.3305C64.3021 13.3951 64.1243 13.4255 63.9458 13.42C63.7664 13.4328 63.5864 13.4075 63.4172 13.3458C63.2481 13.2841 63.0935 13.1873 62.9635 13.0616C62.835 12.9374 62.7343 12.7868 62.668 12.62C62.6016 12.4531 62.5712 12.2739 62.5788 12.0943C62.5654 11.7306 62.6951 11.3763 62.9396 11.1093C63.2065 10.8531 63.5605 10.7102 63.9284 10.7102C64.2964 10.7102 64.6504 10.8531 64.9173 11.1093Z" fill="white"/>
</g>
</g>
<defs>
<clipPath id="clip0_9_889">
<rect width="163" height="38" fill="white"/>
</clipPath>
</defs>
</svg>
