<svg width="158" height="32" viewBox="0 0 158 32" fill="none" xmlns="http://www.w3.org/2000/svg">
<g clip-path="url(#clip0_9_909)">
<path d="M4.74279 7.92302L9.42133 0.00289659L28.2624 0.000488281L32.9156 7.99928L32.9213 24.0001L28.2632 31.994L9.42788 32.0005L4.69531 24.0009L4.74279 7.92302Z" fill="#4D4D4D"/>
<path d="M4.69655 23.9984H13.1877L8.52386 15.9378L12.3168 7.92458L4.74403 7.92297L0 16.0028" fill="#EDEDED"/>
<path d="M15.7636 23.9984H21.9702L27.4583 16.1529L22.066 8H14.765L10.3672 15.8784L15.7636 23.9984Z" fill="#E0E0E0"/>
<path d="M0 16.002L4.69655 24.0007H13.1885L8.57543 16.0292L0 16.002Z" fill="#ACACAC"/>
<path d="M10.4551 16.0037L15.7631 24.0008H21.9689L27.371 16.0069L10.4551 16.0037Z" fill="#9E9E9E"/>
<path d="M12.5569 16.0076L10.9551 16.4652L9.41797 16.0068L15.6934 5.33801L17.2633 8.0016" fill="#00B8E3"/>
<path d="M17.2581 23.9985L15.6964 26.6733L11.5277 22.2685L9.41602 16.0093V16.0061H12.5574" fill="#33C6E9"/>
<path d="M9.41919 16.0068H9.41592V16.0092L7.84685 18.676L6.27124 16.0212L7.86895 13.3031L12.5573 5.3396H15.6955" fill="#008AAA"/>
<path d="M26.6855 23.9985H36.19L36.1842 7.99927H26.6855V23.9985Z" fill="#D4D4D4"/>
<path d="M26.6855 16.0286V24.0001H36.1728V16.0286H26.6855Z" fill="#919191"/>
<path d="M15.6979 26.6764H12.5573L7.84766 18.6752L9.41672 16.01L15.6979 26.6764Z" fill="#00B8E3"/>
<path d="M28.253 16.0069L21.9759 26.674C21.3989 25.8424 20.4102 24.0008 20.4102 24.0008L25.119 16.0052L28.253 16.0069Z" fill="#008AAA"/>
<path d="M25.1116 26.674L21.9768 26.6732L28.2547 16.006L29.8229 13.3425L31.3961 16.0237M28.2538 16.0068H25.1206L20.4102 8.00083L21.9694 5.34045L25.782 10.0945L28.2538 16.0068Z" fill="#00B8E3"/>
<path d="M29.8234 13.3409V13.3433L28.2543 16.0069L21.9707 5.34131L25.1146 5.34291L29.8234 13.3409Z" fill="#33C6E9"/>
<path d="M144.033 8.01197C144.012 8.01175 143.991 8.01568 143.971 8.02352C143.952 8.03136 143.934 8.04296 143.919 8.05762C143.904 8.07229 143.892 8.08973 143.885 8.10891C143.877 8.12809 143.873 8.14863 143.873 8.16931V23.8257C143.873 23.9108 143.943 23.9823 144.033 23.9823H147.347C147.434 23.9823 147.506 23.91 147.506 23.8257V19.5156C147.506 19.4787 147.519 19.441 147.547 19.4113L147.695 19.2475L149.005 17.817C149.021 17.7999 149.041 17.7865 149.063 17.7777C149.085 17.7689 149.108 17.765 149.132 17.7663C149.155 17.7675 149.178 17.7738 149.199 17.7848C149.22 17.7958 149.238 17.8112 149.252 17.8298L150.503 19.4835L152.742 22.4377L153.562 23.5191L153.862 23.918C153.895 23.9582 153.941 23.9823 153.992 23.9823H157.839C157.869 23.9817 157.897 23.9734 157.922 23.9582C157.947 23.9429 157.968 23.9214 157.981 23.8957C157.995 23.8701 158.001 23.8413 158 23.8124C157.998 23.7836 157.988 23.7557 157.972 23.7318L157.175 22.6432L156.038 21.0746C155.7 20.6122 155.338 20.1129 154.947 19.5767L154.771 19.3326L153.331 17.3418C152.804 16.6171 152.276 15.893 151.748 15.1695C151.727 15.1407 151.717 15.1057 151.719 15.0704C151.721 15.0351 151.736 15.0017 151.761 14.976L153.03 13.592L156.079 10.2686L157.912 8.27207C157.936 8.24413 157.95 8.20961 157.953 8.17333C157.954 8.1523 157.95 8.13136 157.942 8.11175C157.934 8.09215 157.923 8.07428 157.908 8.05922C157.893 8.04416 157.875 8.03221 157.855 8.0241C157.835 8.01598 157.814 8.01185 157.792 8.01197H153.725C153.703 8.01193 153.681 8.01633 153.661 8.02489C153.641 8.03345 153.622 8.046 153.607 8.06174L152.332 9.42163L149.612 12.3228L147.782 14.272C147.761 14.2954 147.732 14.3119 147.701 14.3192C147.67 14.3264 147.637 14.3242 147.607 14.3127C147.577 14.3012 147.551 14.281 147.533 14.2548C147.515 14.2286 147.505 14.1976 147.506 14.166V8.16851C147.506 8.12699 147.489 8.08718 147.459 8.05782C147.429 8.02846 147.388 8.01197 147.346 8.01197H144.033Z" fill="white"/>
<path d="M132.238 8.01196C132.207 8.01258 132.176 8.022 132.151 8.03908C132.125 8.05617 132.105 8.0802 132.092 8.1083L127.825 17.7937L127.823 17.7961L127.817 17.8065L127.815 17.8146L127.263 19.0709L127.23 19.148L127.159 19.3045H127.16L127.1 19.4378V19.4402L125.441 23.2076L125.197 23.7615C125.186 23.7854 125.182 23.8115 125.184 23.8375C125.186 23.8634 125.195 23.8885 125.209 23.9104C125.224 23.9323 125.244 23.9503 125.267 23.9629C125.29 23.9754 125.316 23.9821 125.343 23.9822H128.862C128.893 23.9819 128.922 23.9733 128.947 23.9574C128.973 23.9415 128.993 23.919 129.006 23.8923C129.006 23.8891 129.009 23.8891 129.009 23.8867L130.235 21.0891L130.438 20.6267C130.451 20.5981 130.471 20.5738 130.498 20.5567C130.524 20.5396 130.555 20.5304 130.587 20.5303H137.201C137.232 20.5301 137.263 20.5392 137.289 20.5564C137.315 20.5736 137.335 20.5981 137.346 20.6267L138.708 23.7302L140.235 18.4175L139.008 15.6318L137.912 13.1449L135.692 8.1091C135.68 8.08044 135.66 8.05592 135.634 8.03873C135.608 8.02154 135.577 8.01249 135.545 8.01277H133.478L132.238 8.01196ZM138.708 23.7302V23.7326L138.779 23.8867C138.803 23.9453 138.86 23.9831 138.924 23.9831H142.444C142.471 23.9829 142.497 23.9762 142.52 23.9636C142.544 23.951 142.563 23.9329 142.578 23.911C142.592 23.889 142.601 23.8638 142.603 23.8378C142.606 23.8117 142.601 23.7855 142.59 23.7615L142.558 23.6892L140.235 18.4175L138.708 23.7302ZM133.904 13.0036C133.964 13.0036 134.024 13.0357 134.052 13.0975L134.824 14.8636L135.603 16.6498L135.836 17.1828C135.847 17.2066 135.851 17.2326 135.849 17.2585C135.847 17.2844 135.838 17.3093 135.823 17.331C135.809 17.3527 135.789 17.3705 135.766 17.3828C135.742 17.395 135.716 17.4013 135.69 17.4011H132.097C132.071 17.4012 132.045 17.3948 132.021 17.3825C131.998 17.3702 131.978 17.3524 131.964 17.3307C131.95 17.309 131.941 17.2841 131.939 17.2583C131.936 17.2325 131.941 17.2065 131.951 17.1828L132.374 16.2275L133.757 13.0967C133.77 13.0688 133.79 13.0451 133.817 13.0285C133.843 13.012 133.873 13.0033 133.904 13.0036H133.904Z" fill="white"/>
<path d="M117.415 7.646C116.739 7.646 116.092 7.70701 115.477 7.83465H115.474C114.433 8.03949 113.444 8.44555 112.564 9.02917C112.126 9.31936 111.716 9.64826 111.339 10.0118C110.122 11.1782 109.351 12.5782 109.035 14.1669L109.033 14.1693L109.021 14.2303L109.017 14.2488L108.983 14.4294V14.4286L108.98 14.4382V14.443L108.972 14.5113V14.5185C108.902 14.9742 108.868 15.4344 108.869 15.8953C108.869 18.0065 109.537 19.8063 110.875 21.2955C111.018 21.4608 111.175 21.6198 111.337 21.7763C111.751 22.1745 112.191 22.5229 112.653 22.8199C114.028 23.7014 115.615 24.1421 117.415 24.1421C117.616 24.1421 117.813 24.1373 118.008 24.1236C119.751 24.0273 121.283 23.4943 122.604 22.5253C122.918 22.296 123.216 22.0457 123.495 21.7763L123.503 21.7683C124.138 21.1652 124.67 20.4649 125.076 19.6948C125.197 19.4636 125.305 19.2275 125.4 18.9827C125.777 18.0402 125.964 17.0103 125.964 15.8961C125.964 15.5958 125.95 15.3004 125.923 15.013V15.0082C125.849 14.1499 125.632 13.3093 125.282 12.5196C124.872 11.5964 124.277 10.7607 123.495 10.0118C123.17 9.69868 122.829 9.41771 122.472 9.16724C121.031 8.15335 119.348 7.646 117.415 7.646ZM117.429 10.7551C118.788 10.7551 119.933 11.2569 120.864 12.2603C120.915 12.3141 120.964 12.3695 121.008 12.4249C121.844 13.3994 122.261 14.5602 122.261 15.9057C122.261 16.8449 122.058 17.6902 121.652 18.444C121.406 18.9007 121.092 19.3187 120.72 19.6843C120.39 20.0201 120.008 20.3039 119.589 20.5256C118.942 20.8652 118.222 21.0354 117.428 21.0354C116.701 21.0431 115.983 20.8802 115.333 20.5601C115.002 20.3924 114.694 20.1847 114.416 19.942C114.267 19.8163 114.126 19.6815 113.994 19.5382C113.061 18.5404 112.594 17.3298 112.594 15.9065C112.594 15.8639 112.594 15.8238 112.597 15.7813C112.621 14.4109 113.087 13.2381 113.994 12.2603C114.673 11.5282 115.469 11.0602 116.378 10.8635C116.723 10.7906 117.076 10.7543 117.429 10.7551Z" fill="white"/>
<path d="M98.4272 8.01197C98.4061 8.01176 98.3852 8.01568 98.3657 8.02352C98.3462 8.03136 98.3284 8.04296 98.3136 8.05762C98.2987 8.07229 98.287 8.08973 98.2791 8.10891C98.2712 8.12809 98.2673 8.14863 98.2676 8.16931V23.8257C98.2676 23.9108 98.338 23.9823 98.4272 23.9823H108.681C108.771 23.9823 108.842 23.91 108.842 23.8257V20.9598C108.842 20.9393 108.837 20.9189 108.829 20.9C108.821 20.881 108.809 20.8638 108.794 20.8494C108.78 20.8349 108.762 20.8235 108.743 20.8157C108.723 20.8079 108.702 20.804 108.681 20.8041H102.06C102.039 20.8043 102.018 20.8005 101.999 20.7929C101.98 20.7853 101.963 20.7741 101.948 20.7598C101.933 20.7456 101.921 20.7286 101.913 20.7099C101.905 20.6912 101.901 20.6711 101.901 20.6508V8.16931C101.901 8.13947 101.893 8.11018 101.876 8.08507C101.86 8.05995 101.836 8.04012 101.808 8.02803C101.787 8.01723 101.764 8.01171 101.74 8.01197H99.9054H98.4272Z" fill="white"/>
<path d="M89.8648 7.6468C87.4723 7.6468 85.4498 8.44074 83.7956 10.023C83.4953 10.312 83.2227 10.6154 82.9755 10.9301V10.9333C81.8689 12.343 81.3164 14.016 81.3164 15.9506C81.3164 17.0561 81.4924 18.07 81.8476 18.9963L81.8525 18.9947L81.8484 18.9971C82.0563 19.5551 82.333 20.0696 82.6661 20.5609V20.5633C82.6686 20.5633 82.6686 20.5658 82.6686 20.5658C82.9832 21.0246 83.3462 21.4497 83.7514 21.8341C84.239 22.3036 84.7846 22.7113 85.3753 23.0479H85.3778C85.6304 23.1912 85.8908 23.3209 86.1578 23.4365H86.1636L86.166 23.4389H86.1685C87.2898 23.9221 88.5479 24.1638 89.9475 24.1638C90.3592 24.1638 90.7627 24.1341 91.1548 24.0787H91.163C91.4151 24.0442 91.6639 23.9968 91.9103 23.9382C93.2878 23.6139 94.5499 22.9291 95.6999 21.8855C95.9299 21.6784 96.1583 21.452 96.3801 21.2136C96.4071 21.1834 96.4215 21.1443 96.4204 21.1041C96.4194 21.0639 96.4029 21.0256 96.3744 20.9968L94.2741 18.8751C94.2564 18.8566 94.2342 18.8427 94.2096 18.8347C94.185 18.8267 94.1588 18.8249 94.1333 18.8294C94.0962 18.8374 94.0629 18.8572 94.0384 18.8856C93.4777 19.5358 92.8393 20.0247 92.1247 20.3482C91.4151 20.6693 90.6301 20.8299 89.7723 20.8299C89.1846 20.8299 88.6346 20.7392 88.1263 20.5561C87.4914 20.3231 86.9166 19.9559 86.4427 19.4804C85.9643 19.0139 85.6004 18.4467 85.3786 17.8219H85.3729L85.3786 17.8211C85.1699 17.2471 85.0676 16.6105 85.0676 15.9065C85.0676 14.5233 85.4867 13.4035 86.3314 12.5485C86.3936 12.4875 86.4558 12.4257 86.5237 12.3639C87.4928 11.4889 88.6616 11.0505 90.0293 11.0505C90.5294 11.0505 91.0091 11.1115 91.4617 11.2344V11.2336C92.5012 11.5097 93.413 12.1046 94.198 13.0125C94.2602 13.0848 94.3739 13.0896 94.4353 13.0181L96.4799 10.7447C96.5057 10.715 96.5196 10.6772 96.5192 10.6383C96.5187 10.5993 96.5039 10.5618 96.4775 10.5328C94.8773 8.80921 92.9391 7.85632 90.6661 7.67811C90.4026 7.65804 90.1374 7.646 89.8665 7.646L89.8648 7.6468Z" fill="white"/>
<path d="M67.5988 8.01196C67.571 8.012 67.5437 8.01917 67.5196 8.03274C67.4955 8.04631 67.4754 8.06582 67.4614 8.08934C67.4473 8.11286 67.4398 8.13957 67.4395 8.16683C67.4392 8.19409 67.4461 8.22096 67.4597 8.24477L69.0083 10.9011L71.81 15.7041L72.9395 17.6388C72.9533 17.6625 72.9606 17.6893 72.9608 17.7166V23.8257C72.9608 23.9108 73.0312 23.9823 73.1204 23.9823H76.4345C76.5237 23.9823 76.5933 23.91 76.5933 23.8257V17.7166C76.5933 17.6901 76.6015 17.6637 76.6154 17.6396L77.4143 16.27L80.446 11.0713L81.0656 10.0117L81.4773 9.30522H81.4716L81.4773 9.30282L82.0945 8.24637C82.1082 8.22272 82.1154 8.19595 82.1153 8.16873C82.1152 8.14151 82.1078 8.11479 82.0939 8.09124C82.08 8.06769 82.06 8.04812 82.036 8.03449C82.012 8.02086 81.9847 8.01365 81.9569 8.01357H78.3858C78.3582 8.01357 78.3309 8.02059 78.3068 8.03395C78.2827 8.04731 78.2626 8.06656 78.2483 8.08983L75.0128 13.5511L75.0103 13.5535V13.5559L74.8368 13.6811L74.7067 13.7791C74.6789 13.7653 74.6557 13.7441 74.6396 13.718L74.5847 13.6281L74.5037 13.4917L71.3074 8.08903C71.2931 8.06565 71.2728 8.04632 71.2486 8.03295C71.2243 8.01958 71.1969 8.01262 71.1691 8.01277L67.5988 8.01196ZM80.3159 9.64961V9.65122L80.3126 9.65282L80.3159 9.64961Z" fill="white"/>
<path d="M54.5101 8.01198C54.4889 8.01166 54.4679 8.01551 54.4483 8.0233C54.4287 8.03109 54.4108 8.04267 54.3959 8.05734C54.3809 8.07202 54.3691 8.08949 54.3612 8.10873C54.3532 8.12797 54.3493 8.14857 54.3496 8.16932V23.8257C54.3496 23.9108 54.42 23.9823 54.5092 23.9823H66.1843C66.2744 23.9823 66.3447 23.91 66.3447 23.8257V20.9839C66.3443 20.9425 66.3272 20.9029 66.2972 20.8737C66.2671 20.8445 66.2266 20.8282 66.1843 20.8282H58.1426C58.1215 20.8283 58.1007 20.8243 58.0812 20.8165C58.0618 20.8087 58.0441 20.7972 58.0292 20.7826C58.0143 20.7681 58.0024 20.7508 57.9944 20.7317C57.9863 20.7127 57.9821 20.6923 57.9821 20.6717V17.6717C57.9821 17.5866 58.0558 17.5144 58.1426 17.5144H65.1154C65.1575 17.5144 65.198 17.498 65.2279 17.4688C65.2578 17.4396 65.2748 17.4 65.275 17.3586V14.634C65.275 14.5457 65.2013 14.4775 65.1154 14.4775H58.1417C58.0995 14.4773 58.059 14.4607 58.0291 14.4314C57.9992 14.4021 57.9823 14.3624 57.9821 14.3209V11.3435C57.9821 11.2552 58.0558 11.1869 58.1426 11.1869H65.9306C65.9729 11.1869 66.0135 11.1704 66.0434 11.1411C66.0734 11.1117 66.0902 11.0719 66.0902 11.0304V8.16852C66.0902 8.12701 66.0734 8.08719 66.0434 8.05783C66.0135 8.02847 65.9729 8.01198 65.9306 8.01198H59.5225H54.5101Z" fill="white"/>
<path d="M38.6792 8.01199C38.6581 8.01177 38.6371 8.0157 38.6176 8.02354C38.5981 8.03138 38.5804 8.04298 38.5655 8.05764C38.5506 8.07231 38.5389 8.08974 38.531 8.10893C38.5231 8.12811 38.5192 8.14865 38.5196 8.16933V23.8257C38.5196 23.9108 38.5899 23.9823 38.6792 23.9823H41.9924C42.0825 23.9823 42.1529 23.91 42.1529 23.8257V19.5157C42.1529 19.4787 42.166 19.441 42.1938 19.4113L42.883 18.6551L43.6524 17.817C43.6684 17.8002 43.6879 17.787 43.7097 17.7784C43.7314 17.7698 43.7548 17.766 43.7782 17.7672C43.8016 17.7685 43.8245 17.7747 43.8451 17.7855C43.8658 17.7963 43.8838 17.8115 43.8979 17.8299L46.1963 20.8619L46.1979 20.8635L47.848 23.0414L48.511 23.9164C48.5254 23.9364 48.5446 23.9527 48.5668 23.9639C48.589 23.975 48.6137 23.9808 48.6387 23.9807H52.4881C52.5173 23.9802 52.5459 23.9719 52.5707 23.9567C52.5956 23.9415 52.6157 23.9199 52.629 23.8944C52.6423 23.8688 52.6482 23.8401 52.6462 23.8115C52.6441 23.7829 52.6342 23.7553 52.6174 23.7318L52.4774 23.5383C51.9722 22.8472 51.4685 22.155 50.9665 21.4616C50.5032 20.8274 49.9892 20.1185 49.4212 19.3326L49.3639 19.2524C48.3768 17.8895 47.3869 16.5285 46.3943 15.1695C46.3742 15.1404 46.3645 15.1055 46.3671 15.0704C46.3696 15.0353 46.3841 15.002 46.4083 14.976L47.8586 13.3962V13.393L49.0528 12.0925L50.2004 10.8418L52.5576 8.27128C52.5783 8.24887 52.5918 8.22106 52.5966 8.19124C52.6014 8.16142 52.5973 8.13086 52.5847 8.10331C52.5721 8.07575 52.5517 8.05237 52.5258 8.03601C52.4999 8.01966 52.4697 8.01103 52.439 8.01119H48.3735C48.3511 8.01096 48.3288 8.01534 48.3083 8.02405C48.2877 8.03277 48.2692 8.04561 48.254 8.06176L45.7338 10.747L42.4287 14.2712C42.4071 14.2947 42.3787 14.3111 42.3474 14.3184C42.316 14.3257 42.2831 14.3234 42.2531 14.3119C42.223 14.3004 42.1973 14.2802 42.1792 14.254C42.1612 14.2278 42.1517 14.1968 42.1521 14.1652V8.16452C42.1519 8.1441 42.1477 8.12391 42.1396 8.1051C42.1316 8.08629 42.1198 8.06923 42.1049 8.05491C42.0901 8.04059 42.0725 8.02928 42.0532 8.02164C42.0339 8.014 42.0133 8.01017 41.9924 8.01038H40.2654L38.6792 8.01199Z" fill="white"/>
<path d="M73.0273 23.9277C73.0076 23.9076 72.9905 22.4907 72.9905 20.7808V17.6693L70.2239 12.9297C68.5902 10.1305 67.4705 8.15728 67.4885 8.11072C67.5147 8.04329 67.7807 8.03205 69.353 8.03205C71.0326 8.03205 71.1947 8.04008 71.27 8.12437C71.315 8.17575 72.077 9.44814 72.9634 10.9525C73.8491 12.4561 74.6029 13.7165 74.6373 13.7526C74.7961 13.9212 75.0138 13.6073 76.6672 10.8128L78.3123 8.03125H80.1744C81.7247 8.03125 82.0406 8.04409 82.0652 8.10671C82.0815 8.14685 80.8562 10.3039 79.3428 12.8984L76.591 17.6155L76.537 23.9349L74.801 23.9494C73.8458 23.9574 73.0477 23.9478 73.0273 23.9277Z" fill="white"/>
<path d="M54.3938 23.8964C54.3799 23.8602 54.3749 20.2815 54.3823 15.9449L54.3962 8.05933H66.0353V11.1396L62.0615 11.1532C59.2352 11.1628 58.0672 11.1837 58.0148 11.2254C57.9084 11.3129 57.9084 14.3643 58.0148 14.451C58.0664 14.4927 59.1296 14.5144 61.6555 14.5232L65.2242 14.5377V17.4581L61.6555 17.4718C59.1296 17.4814 58.0664 17.5031 58.0148 17.544C57.9575 17.5922 57.942 17.9173 57.942 19.1335C57.942 19.974 57.9567 20.6989 57.9747 20.7463C58.0042 20.8217 58.4151 20.8298 62.0664 20.8298C64.7593 20.8298 66.1589 20.8482 66.2293 20.8852C66.3291 20.9373 66.3341 21.0104 66.3341 22.388C66.3341 23.4428 66.316 23.853 66.2686 23.8996C66.172 23.9943 54.4306 23.9911 54.3938 23.8964Z" fill="white"/>
</g>
<defs>
<clipPath id="clip0_9_909">
<rect width="158" height="32" fill="white"/>
</clipPath>
</defs>
</svg>
