<svg width="173" height="81" viewBox="0 0 173 81" fill="none" xmlns="http://www.w3.org/2000/svg">
<path d="M127.375 31.23C125.215 32.4 125.305 36.18 127.645 37.08C130.165 37.98 132.865 38.07 135.384 38.7C136.014 38.88 136.644 39.15 136.914 39.78C137.544 41.04 137.004 42.93 135.564 43.38C133.494 44.01 131.065 44.01 129.085 43.2C127.735 42.66 127.105 41.31 127.015 40.05C126.475 40.05 125.845 40.05 125.305 40.14C125.395 41.4 125.665 42.75 126.655 43.56C128.275 44.82 130.345 45 132.325 45.09C134.124 45.09 136.104 44.91 137.634 43.92C139.434 42.66 139.614 39.33 137.454 38.25C135.474 37.26 133.224 37.17 131.155 36.72C130.165 36.45 128.995 36.36 128.095 35.73C126.925 34.65 127.465 32.4 128.995 32.04C130.975 31.5 133.134 31.41 135.024 32.13C136.194 32.49 136.644 33.75 136.824 34.74C137.364 34.74 137.904 34.74 138.534 34.74C138.534 33.66 138.174 32.49 137.274 31.77C135.834 30.6 133.854 30.51 132.145 30.51C130.615 30.42 128.905 30.42 127.375 31.23Z" fill="white"/>
<path d="M63.2066 31.68C62.3067 30.87 60.9568 30.6 59.7868 30.6C57.177 30.6 54.5671 30.69 51.9573 30.69C51.9573 35.28 51.9573 39.96 51.9573 44.55C52.4073 44.55 52.8572 44.55 53.3072 44.55C53.3072 42.57 53.2172 40.59 53.3072 38.7C55.5571 38.7 57.717 38.7 59.9668 38.7C61.5867 38.61 63.4766 37.89 64.1066 36.27C64.6466 34.74 64.4666 32.76 63.2066 31.68ZM62.4867 36C62.0367 37.17 60.6868 37.53 59.5169 37.62C57.447 37.71 55.3771 37.62 53.3972 37.62C53.3972 35.73 53.3972 33.75 53.3972 31.86C55.3771 31.86 57.357 31.86 59.3369 31.86C60.3268 31.86 61.4967 32.04 62.1267 32.85C62.7567 33.66 62.8467 34.92 62.4867 36Z" fill="white"/>
<path d="M158.063 30.69C158.063 35.28 158.063 39.87 158.063 44.55C162.023 44.55 166.072 44.55 170.032 44.55C170.032 44.19 170.032 43.83 170.032 43.38C166.612 43.29 163.192 43.38 159.683 43.29C159.683 39.06 159.683 34.83 159.683 30.6C159.143 30.69 158.603 30.69 158.063 30.69Z" fill="white"/>
<path d="M88.9466 32.4899C88.9466 33.4799 88.9466 34.4699 88.9466 35.4599C88.3167 35.4599 87.7767 35.4599 87.1467 35.4599C87.1467 35.7299 87.1467 36.0899 87.1467 36.3599C87.7767 36.3599 88.4067 36.3599 88.9466 36.3599C88.9466 38.4299 88.9466 40.5899 88.9466 42.6599C88.9466 43.2899 89.1266 43.9199 89.6666 44.2799C90.6565 44.7299 91.7365 44.6399 92.8164 44.5499C92.8164 44.2799 92.8164 43.9199 92.8164 43.6499C92.0964 43.7399 91.3765 43.8299 90.7465 43.4699C90.2966 43.1999 90.3865 42.6599 90.2966 42.2099C90.2966 40.2299 90.2966 38.3399 90.2966 36.3599C91.1065 36.3599 91.9165 36.3599 92.7264 36.3599C92.7264 35.9999 92.7264 35.7299 92.6364 35.3699C91.8265 35.3699 91.0165 35.3699 90.2066 35.3699C90.2066 34.3799 90.2066 33.3899 90.2066 32.3999C89.9366 32.4899 89.3966 32.4899 88.9466 32.4899Z" fill="white"/>
<path d="M77.516 36C76.2561 36.81 76.2561 39.15 77.786 39.78C79.8559 40.5 82.1958 40.32 84.3556 40.95C85.4356 41.31 85.5256 42.93 84.5356 43.47C83.0957 44.19 81.3858 44.1 79.8559 43.83C78.776 43.65 77.876 42.93 77.786 41.76C77.2461 41.76 76.7061 41.76 76.2561 41.76C76.4361 42.57 76.6161 43.47 77.336 44.01C78.506 44.82 80.0359 44.82 81.3858 44.91C82.8257 44.91 84.3557 44.82 85.6156 44.1C86.6955 43.47 87.0555 42.03 86.4255 41.04C85.9756 40.32 85.1656 40.05 84.3556 39.87C82.6457 39.51 80.8459 39.51 79.1359 39.15C78.506 38.97 77.966 38.52 77.966 37.89C77.966 36.99 78.956 36.54 79.7659 36.36C81.0258 36.18 82.4658 36.09 83.7257 36.63C84.4456 36.9 84.6256 37.62 84.8056 38.34C85.3456 38.34 85.7956 38.34 86.3355 38.34C86.2455 37.53 85.9756 36.63 85.2556 36.18C83.9057 35.28 82.2858 35.28 80.7559 35.37C79.6759 35.28 78.506 35.37 77.516 36Z" fill="white"/>
<path d="M109.467 35.55C108.837 35.82 108.477 36.45 108.117 37.08C108.117 36.54 108.117 36 108.117 35.55C107.667 35.55 107.217 35.55 106.677 35.55C106.587 38.61 106.677 41.58 106.677 44.64C107.127 44.64 107.577 44.64 108.027 44.64C108.027 43.11 108.027 41.49 108.027 39.96C108.027 38.88 108.387 37.62 109.287 36.99C110.277 36.27 111.537 36.45 112.707 36.45C112.707 36.09 112.707 35.64 112.707 35.28C111.627 35.19 110.547 35.1 109.467 35.55Z" fill="white"/>
<path d="M143.304 31.4099C145.284 30.4199 147.534 30.2399 149.694 30.4199C151.764 30.5999 153.833 31.3199 155.183 32.9399C156.893 34.7399 157.253 37.6199 156.533 39.9599C156.173 41.3099 155.273 42.2999 154.283 43.1999C155.093 43.7399 155.903 44.2799 156.713 44.9099C156.353 45.2699 155.993 45.5399 155.633 45.8999C154.823 45.3599 154.013 44.7299 153.203 44.2799C152.573 44.2799 151.944 44.6399 151.224 44.8199C149.424 45.1799 147.444 45.1799 145.644 44.8199C143.664 44.4599 141.684 43.2899 140.604 41.4899C139.524 39.7799 139.434 37.5299 139.884 35.6399C140.424 33.7499 141.684 32.2199 143.304 31.4099ZM146.004 31.7699C144.114 32.2199 142.314 33.5699 141.684 35.4599C141.054 37.5299 141.234 39.9599 142.764 41.6699C144.114 43.1999 146.094 43.8299 148.074 43.8299C150.234 43.9199 152.573 43.2899 154.013 41.5799C155.993 39.0599 155.723 35.0099 153.113 33.0299C151.134 31.3199 148.434 31.2299 146.004 31.7699Z" fill="white"/>
<path d="M88.9463 32.49C89.3963 32.49 89.8463 32.49 90.3862 32.49C90.3862 33.48 90.3862 34.47 90.3862 35.46C91.1962 35.46 92.0062 35.46 92.8161 35.46C92.8161 35.82 92.8161 36.09 92.9061 36.45C92.0961 36.45 91.2862 36.45 90.4762 36.45C90.4762 38.43 90.4762 40.32 90.4762 42.3C90.4762 42.75 90.4762 43.29 90.9262 43.56C91.5562 43.83 92.2761 43.74 92.9961 43.74C92.9961 44.01 92.9961 44.37 92.9961 44.64C91.9162 44.73 90.8362 44.82 89.8463 44.37C89.2163 44.1 89.0363 43.38 89.1263 42.75C89.1263 40.68 89.1263 38.52 89.1263 36.45C88.4964 36.45 87.8664 36.45 87.3264 36.45C87.3264 36.18 87.3264 35.82 87.3264 35.55C87.9564 35.55 88.4964 35.55 89.1263 35.55C88.9463 34.47 88.9463 33.48 88.9463 32.49Z" fill="white"/>
<path d="M73.4674 35.9999C71.8475 35.0999 69.8676 35.0099 68.0677 35.2799C66.5378 35.5499 65.0979 36.3599 64.4679 37.7999C63.8379 39.2399 63.8379 40.9499 64.5579 42.3899C65.3678 43.9199 67.0777 44.7299 68.6977 44.8199C70.7675 44.9999 73.1074 44.7299 74.6373 43.1099C76.2572 41.0399 75.8973 37.3499 73.4674 35.9999ZM73.1974 42.7499C72.3875 43.5599 71.2175 43.9199 70.1376 43.9199C68.8776 44.0099 67.5277 43.7399 66.6278 42.9299C65.4578 41.8499 65.2778 40.0499 65.7278 38.5199C66.1778 37.1699 67.4377 36.3599 68.7877 36.1799C70.0476 35.9999 71.4875 36.0899 72.6574 36.8099C73.5574 37.3499 74.0074 38.3399 74.0974 39.3299C74.2773 40.5899 74.0974 41.8499 73.1974 42.7499Z" fill="white"/>
<path d="M77.5162 35.9999C78.4161 35.3699 79.5861 35.2799 80.666 35.1899C82.1959 35.0999 83.9058 35.0999 85.1658 35.9999C85.8857 36.4499 86.1557 37.3499 86.2457 38.1599C85.7057 38.1599 85.2558 38.1599 84.7158 38.1599C84.6258 37.4399 84.3558 36.8099 83.6358 36.4499C82.3759 35.9099 81.026 35.9099 79.6761 36.1799C78.8661 36.2699 77.8762 36.7199 77.8762 37.7099C77.7862 38.3399 78.4161 38.8799 79.0461 38.9699C80.756 39.4199 82.5559 39.3299 84.2658 39.6899C85.0758 39.8699 85.8857 40.2299 86.3357 40.8599C86.9657 41.8499 86.6057 43.3799 85.5257 43.9199C84.2658 44.6399 82.7359 44.7299 81.296 44.7299C79.9461 44.6399 78.4161 44.6399 77.2462 43.8299C76.5262 43.2899 76.2563 42.4799 76.1663 41.5799C76.7062 41.5799 77.2462 41.5799 77.6962 41.5799C77.6962 42.7499 78.6861 43.5599 79.7661 43.6499C81.296 43.8299 83.0059 44.0099 84.4458 43.2899C85.4357 42.7499 85.3457 41.1299 84.2658 40.7699C82.1059 40.1399 79.7661 40.3199 77.6962 39.5999C76.2563 39.1499 76.2563 36.8099 77.5162 35.9999Z" fill="white"/>
<path d="M97.1347 35.37C98.5746 35.01 100.195 35.01 101.634 35.46C102.444 35.73 103.074 36.36 103.704 36.9C103.704 36.36 103.794 35.91 103.794 35.46C104.244 35.46 104.694 35.46 105.144 35.46C105.234 38.25 105.144 41.04 105.234 43.83C105.324 45 105.054 46.26 104.154 47.07C102.984 48.15 101.274 48.33 99.7445 48.33C98.3946 48.33 96.9547 48.24 95.6948 47.61C94.8848 47.16 94.4348 46.26 94.2548 45.36C94.7048 45.36 95.1548 45.36 95.6048 45.36C95.8747 45.99 96.1447 46.71 96.7747 46.98C97.7646 47.43 98.8446 47.43 99.9245 47.43C101.094 47.34 102.444 47.16 103.164 46.17C103.884 45.18 103.704 43.92 103.704 42.75C102.264 44.28 100.015 44.55 98.0346 44.28C96.7747 44.1 95.5148 43.65 94.6148 42.66C93.6249 41.4 93.5349 39.69 93.8949 38.25C94.2548 36.81 95.6948 35.73 97.1347 35.37ZM98.3046 36.27C97.3147 36.45 96.2347 36.9 95.6948 37.8C95.0648 38.88 95.0648 40.32 95.4248 41.4C95.8747 42.57 97.2247 43.2 98.3946 43.38C99.9245 43.56 101.724 43.38 102.804 42.21C104.064 40.68 103.884 38.07 102.264 36.9C101.184 36.09 99.6545 36.09 98.3046 36.27Z" fill="white"/>
<path d="M109.465 35.55C110.545 35.1 111.625 35.19 112.705 35.19C112.705 35.55 112.705 36 112.705 36.36C111.535 36.36 110.275 36.18 109.285 36.9C108.385 37.53 108.025 38.79 108.025 39.87C108.025 41.4 108.025 43.02 108.025 44.55C107.575 44.55 107.125 44.55 106.675 44.55C106.585 41.49 106.585 38.52 106.675 35.46C107.125 35.46 107.575 35.46 108.115 35.46C108.115 36 108.115 36.54 108.115 36.99C108.475 36.45 108.835 35.82 109.465 35.55Z" fill="white"/>
<path d="M113.245 37.44C114.145 35.91 116.035 35.28 117.745 35.19C119.545 35.1 121.524 35.37 122.784 36.72C123.774 37.62 124.044 38.97 124.134 40.32C120.715 40.32 117.385 40.32 113.965 40.32C114.055 41.22 114.325 42.21 115.045 42.84C116.395 44.01 118.375 44.19 119.995 43.74C121.075 43.47 121.974 42.66 122.334 41.58C122.874 41.58 123.414 41.58 123.864 41.58C123.414 43.11 122.064 44.19 120.535 44.55C118.465 45 116.035 44.91 114.235 43.65C112.435 42.39 112.075 39.42 113.245 37.44ZM115.855 36.72C114.865 37.26 114.325 38.34 114.145 39.42C117.025 39.42 119.905 39.42 122.784 39.42C122.694 38.79 122.514 38.07 122.064 37.62C120.535 35.82 117.745 35.64 115.855 36.72Z" fill="white"/>
<path d="M25.4995 20.88C23.7896 20.61 21.9897 20.52 20.2798 20.79C19.2899 20.97 18.2999 21.42 17.49 21.87C14.7001 20.97 11.5503 20.43 8.67045 20.97C6.60056 21.33 4.62068 22.59 3.54074 24.48C2.19081 26.73 1.92083 29.43 2.10082 32.04C2.4608 34.92 3.18076 37.8 3.99071 40.59C4.71067 43.02 5.52062 45.45 6.87055 47.61C7.59051 48.78 8.67045 50.04 10.1104 50.4C11.2803 50.67 12.4502 50.31 13.3502 49.59C13.8002 50.04 14.3401 50.4 14.9701 50.58C16.68 51.21 18.5699 51.21 20.2798 50.49C20.3698 52.83 20.2798 55.26 21.1797 57.42C21.5397 58.5 22.0797 59.49 23.0696 60.12C24.1496 60.84 25.4095 60.93 26.6694 60.75C27.7494 60.57 28.9193 60.21 29.8193 59.67C30.8092 59.04 31.6192 58.14 32.0691 57.06C33.1491 54.63 33.2391 52.02 33.3291 49.41C35.8489 49.59 38.4588 48.96 40.3487 47.25C41.0686 46.62 41.6986 45.63 41.4286 44.64C41.1586 43.74 40.1687 43.11 39.2687 43.2C38.2788 43.29 37.3788 43.56 36.3889 43.56C38.5488 39.78 40.2587 35.73 40.9786 31.5C41.2486 29.7 41.5186 27.9 40.9786 26.1C40.7087 25.11 39.9887 24.3 39.2687 23.58C37.6488 21.96 35.3989 20.88 33.1491 20.43C30.5392 19.89 27.9294 20.16 25.4995 20.88Z" fill="white"/>
<path d="M25.4101 21.96C28.11 21.15 30.9898 20.88 33.6897 21.69C35.8495 22.32 37.8294 23.58 39.1794 25.38C39.7193 26.1 39.8993 27.09 39.8993 27.99C39.9893 29.61 39.6293 31.23 39.2693 32.76C38.2794 36.9 36.4795 40.77 34.2296 44.37C35.4896 44.91 36.9295 44.64 38.1894 44.46C38.7294 44.37 39.4493 44.19 39.8093 44.73C40.1693 45.27 39.8093 45.9 39.4493 46.26C37.5594 48.15 34.6796 48.6 32.1597 48.15C31.8898 50.4 31.6198 52.65 31.2598 54.99C31.0798 56.25 30.6298 57.6 29.6399 58.41C28.7399 59.22 27.48 59.58 26.3101 59.76C25.1401 59.94 23.7002 59.85 22.8003 58.95C21.8103 58.05 21.1804 56.7 21.0904 55.44C20.8204 53.19 20.8204 50.85 20.8204 48.6C19.7404 49.5 18.3005 50.04 16.8606 49.95C15.8707 49.86 14.7007 49.68 13.9808 48.96C13.5308 48.6 13.6208 47.88 14.0708 47.52C14.8807 46.89 15.9607 46.98 16.8606 46.62C17.5806 46.44 17.9405 45.72 18.3005 45.27C17.4906 45.18 16.6806 45 16.0506 44.64C14.9707 45.81 13.8908 47.07 12.9008 48.24C12.2709 48.96 11.4609 49.59 10.471 49.41C9.39102 49.23 8.58107 48.42 7.9511 47.61C6.78117 45.9 5.97121 43.92 5.34125 41.94C4.3513 38.7 3.54135 35.46 3.09137 32.13C2.82139 29.61 3.09137 26.91 4.53129 24.84C5.70123 23.13 7.68112 22.23 9.66101 22.05C12.3609 21.78 15.0607 22.32 17.5806 23.22C19.6504 21.87 22.3503 21.6 24.7802 22.14C25.0501 21.96 25.2301 22.05 25.4101 21.96ZM27.39 22.68C27.93 23.04 28.47 23.31 29.0099 23.67C31.1698 25.11 32.8797 27.18 33.8696 29.52C34.1396 30.24 34.4996 30.87 34.4096 31.68C34.4096 33.21 33.8696 34.74 34.0496 36.27C34.2296 37.89 34.5896 39.6 34.1396 41.22C34.0496 41.76 33.6897 42.3 33.5097 42.84C33.5097 42.93 33.5997 43.11 33.5997 43.11C33.7797 42.84 33.9596 42.57 34.1396 42.3C35.8495 39.51 37.1095 36.45 38.0094 33.3C38.4594 31.59 38.8194 29.79 38.8194 27.99C38.8194 27.27 38.7294 26.46 38.2794 25.83C37.2895 24.57 35.9395 23.58 34.4096 22.95C32.1597 22.23 29.7299 22.14 27.39 22.68ZM21.0904 22.86C19.3805 23.04 17.7606 24.03 16.7706 25.38C15.4207 27.27 14.7907 29.61 14.6107 31.86C16.0506 31.23 17.5806 30.6 19.2005 30.96C20.1904 31.23 21.0004 32.13 21.1804 33.12C21.6303 35.19 21.9003 37.26 21.4503 39.33C21.0904 40.95 20.1004 42.39 19.7404 44.1C20.1904 44.1 20.6404 44.19 21.0004 44.37C21.8103 44.82 22.2603 45.72 22.1703 46.62C22.0803 48.87 22.0803 51.12 22.2603 53.37C22.3503 54.27 22.3503 55.26 22.6203 56.16C22.9803 57.24 23.7002 58.32 24.8702 58.59C26.1301 58.77 27.39 58.41 28.5599 57.87C29.6399 57.33 30.1799 56.07 30.3598 54.9C30.7198 52.47 30.9898 50.04 31.2598 47.61C31.3498 46.71 31.1698 45.81 31.7098 45C31.9798 44.46 32.5197 44.28 32.9697 44.01C32.6097 43.47 32.1597 42.93 31.7998 42.39C30.6298 39.87 29.0099 37.53 28.47 34.83C28.29 33.66 28.38 32.31 29.3699 31.5C30.4498 30.6 31.8898 30.69 33.2397 30.69C32.4297 28.44 30.9898 26.46 29.1899 25.02C26.85 23.31 23.8802 22.5 21.0904 22.86ZM9.12103 23.04C7.59112 23.31 6.06121 24.21 5.25125 25.65C4.17131 27.54 4.08132 29.7 4.26131 31.77C4.62129 34.47 5.25125 37.17 6.06121 39.87C6.78117 42.12 7.50113 44.37 8.76106 46.35C9.21103 47.07 9.751 47.79 10.561 48.06C11.2809 48.24 11.8209 47.61 12.2709 47.16C13.1708 45.99 14.2508 44.91 15.2407 43.74C13.8008 42.48 13.0808 40.5 13.2608 38.52C13.4408 37.08 13.5308 35.55 13.4408 34.02C13.2608 31.95 13.6208 29.79 14.2507 27.72C14.7007 26.19 15.5107 24.84 16.5906 23.67C14.1608 23.13 11.5509 22.59 9.12103 23.04ZM30.0899 32.31C29.3699 32.85 29.3699 33.93 29.5499 34.74C30.0899 37.35 31.6198 39.51 32.6997 41.85C33.5997 40.14 33.0597 38.16 32.8797 36.27C32.6997 34.74 33.1497 33.3 33.2397 31.86C32.2497 31.86 31.0798 31.68 30.0899 32.31ZM14.5207 33.3C14.5207 34.56 14.6107 35.82 14.5207 36.99C14.4307 38.07 14.1608 39.15 14.4307 40.23C14.7907 42.21 16.5006 43.83 18.5705 43.83C18.8405 42.84 19.2005 41.85 19.6504 40.95C20.9104 38.52 20.6404 35.73 20.0104 33.21C19.8304 32.49 19.2005 31.95 18.4805 31.95C17.0406 31.95 15.6907 32.58 14.5207 33.3ZM32.7897 45.45C32.4297 45.81 32.4297 46.35 32.4297 46.8C33.2397 47.07 34.1396 47.07 35.0396 46.98C36.2995 46.8 37.6494 46.44 38.6394 45.45C37.1095 45.63 35.3996 45.99 33.8696 45.27C33.5097 45.09 33.0597 45.27 32.7897 45.45ZM17.9405 47.25C17.0406 47.79 15.9607 47.7 15.1507 48.15C16.9506 49.05 19.5605 48.78 20.8204 47.07C21.4503 46.44 20.8204 45.18 20.0104 45.27C19.1105 45.81 18.7505 46.8 17.9405 47.25Z" fill="white"/>
<path d="M30.4508 32.6701C30.9908 32.3101 31.7108 32.3101 32.2507 32.4901C32.2507 33.2101 31.3508 33.7501 30.7208 33.3901C30.5408 33.3001 30.1809 32.9401 30.4508 32.6701Z" fill="white"/>
<path d="M17.7606 32.7599C18.3006 32.5799 18.9305 32.6699 19.3805 33.0299C19.6505 33.2999 19.3805 33.7499 19.1105 33.8399C18.4806 34.2899 17.4906 33.8399 17.4006 33.1199C17.4006 32.9399 17.5806 32.7599 17.7606 32.7599Z" fill="white"/>
<path d="M27.3889 22.68C29.6388 22.14 32.1586 22.23 34.3185 23.04C35.8484 23.58 37.1984 24.66 38.1883 25.92C38.7283 26.55 38.7283 27.36 38.7283 28.08C38.7283 29.88 38.3683 31.59 37.9183 33.39C37.0184 36.54 35.7584 39.6 34.0485 42.39C33.8686 42.66 33.6886 42.93 33.5086 43.2C33.5086 43.11 33.4186 42.93 33.4186 42.93C33.5986 42.39 33.9585 41.85 34.0485 41.31C34.4985 39.69 34.1385 37.98 33.9585 36.36C33.7786 34.83 34.3185 33.3 34.3185 31.77C34.4085 31.05 34.0485 30.33 33.7786 29.61C32.6986 27.27 31.0787 25.2 28.9188 23.76C28.5588 23.31 27.9289 23.04 27.3889 22.68Z" fill="#326690"/>
<path d="M21.0914 22.86C23.8812 22.5 26.851 23.31 29.1009 25.02C30.9008 26.46 32.4307 28.44 33.1507 30.69C31.8908 30.69 30.3608 30.6 29.2809 31.5C28.291 32.31 28.201 33.66 28.381 34.83C28.9209 37.62 30.5408 39.96 31.7108 42.39C31.9807 43.02 32.4307 43.47 32.8807 44.01C32.3407 44.28 31.8908 44.46 31.6208 45C31.1708 45.81 31.3508 46.71 31.1708 47.61C30.9008 50.04 30.6308 52.47 30.2708 54.9C30.0909 56.07 29.5509 57.33 28.4709 57.87C27.391 58.41 26.0411 58.77 24.7812 58.59C23.6112 58.41 22.8013 57.24 22.5313 56.16C22.2613 55.26 22.2613 54.27 22.1713 53.37C22.0813 51.12 22.0813 48.87 22.0813 46.62C22.1713 45.72 21.7213 44.82 20.9114 44.37C20.5514 44.19 20.1014 44.1 19.6514 44.1C20.0114 42.48 21.0014 41.04 21.3613 39.33C21.8113 37.26 21.5413 35.19 21.0914 33.12C20.9114 32.13 20.1014 31.23 19.1115 30.96C17.4916 30.6 15.9616 31.14 14.5217 31.86C14.7017 29.61 15.3317 27.27 16.6816 25.38C17.7615 24.03 19.3815 23.13 21.0914 22.86Z" fill="#326690"/>
<path d="M9.12083 23.04C11.6407 22.59 14.1606 23.04 16.5904 23.76C15.5105 24.93 14.7005 26.28 14.2505 27.81C13.6206 29.79 13.3506 31.95 13.4406 34.11C13.5306 35.64 13.5306 37.08 13.2606 38.61C12.9906 40.5 13.8006 42.48 15.2405 43.83C14.2505 45 13.2606 46.08 12.2707 47.25C11.8207 47.79 11.2807 48.33 10.5608 48.15C9.7508 47.88 9.21083 47.16 8.76086 46.44C7.50093 44.46 6.78097 42.21 6.06101 39.96C5.25105 37.35 4.62109 34.65 4.26111 31.86C4.08112 29.79 4.17111 27.54 5.25105 25.74C6.06101 24.3 7.50093 23.4 9.12083 23.04Z" fill="#326690"/>
<path d="M30.0887 32.31C30.9886 31.68 32.2486 31.77 33.2385 31.86C33.1485 33.3 32.6985 34.74 32.8785 36.27C33.0585 38.07 33.5085 40.05 32.6985 41.85C31.5286 39.51 29.9987 37.35 29.5487 34.74C29.4587 33.93 29.4587 32.94 30.0887 32.31ZM30.4487 32.67C30.1787 32.94 30.4487 33.3 30.7186 33.39C31.3486 33.75 32.2486 33.21 32.2486 32.49C31.7086 32.31 30.9886 32.31 30.4487 32.67Z" fill="#326690"/>
<path d="M14.5209 33.3C15.6908 32.58 17.0407 31.95 18.3907 32.04C19.1106 32.04 19.7406 32.58 19.9206 33.3C20.5505 35.82 20.7305 38.61 19.5606 41.04C19.1106 41.94 18.7506 42.93 18.4807 43.92C16.4108 43.92 14.7009 42.21 14.3409 40.32C14.0709 39.24 14.4309 38.16 14.4309 37.08C14.6109 35.73 14.5209 34.56 14.5209 33.3ZM17.7607 32.76C17.5807 32.85 17.4007 32.94 17.4007 33.12C17.4907 33.84 18.4807 34.29 19.1106 33.84C19.3806 33.66 19.6506 33.3 19.3806 33.03C18.9306 32.67 18.3007 32.58 17.7607 32.76Z" fill="#326690"/>
<path d="M32.7899 45.45C33.0599 45.27 33.5099 45 33.8698 45.27C35.3098 46.08 37.0197 45.63 38.6396 45.45C37.6496 46.35 36.3897 46.8 35.0398 46.98C34.1398 47.07 33.2399 47.16 32.4299 46.8C32.4299 46.35 32.4299 45.81 32.7899 45.45Z" fill="#326690"/>
<path d="M17.9387 47.25C18.7486 46.8 19.1086 45.81 19.9186 45.27C20.7285 45.18 21.4485 46.44 20.7285 47.07C19.4686 48.78 16.8587 49.14 15.0588 48.15C15.9588 47.79 17.0387 47.79 17.9387 47.25Z" fill="#326690"/>
<path d="M25.4998 20.88C27.9297 20.25 30.5395 19.98 33.0594 20.43C35.3093 20.79 37.4691 21.96 39.179 23.58C39.899 24.3 40.619 25.11 40.8889 26.1C41.4289 27.9 41.1589 29.7 40.8889 31.5C40.079 35.73 38.4591 39.78 36.2992 43.56C37.2891 43.56 38.1891 43.29 39.179 43.2C40.079 43.11 41.1589 43.74 41.3389 44.64C41.6089 45.63 40.9789 46.62 40.259 47.25C38.2791 48.96 35.5792 49.5 33.1494 49.41C32.9694 52.02 32.9694 54.63 31.8894 57.06C31.3495 58.14 30.6295 59.04 29.6396 59.67C28.6496 60.3 27.5697 60.57 26.4897 60.75C25.3198 60.93 23.9699 60.84 22.8899 60.12C21.9 59.49 21.36 58.5 21.0001 57.42C20.1901 55.17 20.2801 52.83 20.1001 50.49C18.3902 51.21 16.5003 51.21 14.7904 50.58C14.1604 50.4 13.6205 50.04 13.1705 49.59C12.2705 50.31 11.1006 50.67 9.93067 50.4C8.49075 50.04 7.50081 48.78 6.69085 47.61C5.34093 45.45 4.53098 43.02 3.81102 40.59C3.00106 37.8 2.2811 35.01 1.92112 32.04C1.74113 29.43 1.92112 26.73 3.36104 24.48C4.44098 22.68 6.42087 21.42 8.49076 20.97C11.4606 20.34 14.5204 20.97 17.3103 21.78C18.2102 21.33 19.1102 20.88 20.1001 20.7C21.99 20.43 23.7899 20.61 25.4998 20.88ZM25.4098 21.96C25.2298 22.05 24.9598 21.87 24.7798 21.87C22.35 21.33 19.6501 21.6 17.5802 22.95C15.0604 22.05 12.3605 21.51 9.66069 21.78C7.6808 21.96 5.61091 22.95 4.53098 24.57C3.09106 26.73 2.91107 29.43 3.09106 31.86C3.54103 35.19 4.35099 38.43 5.34093 41.58C6.06089 43.56 6.78085 45.54 7.95078 47.25C8.58075 48.06 9.3907 48.96 10.4706 49.05C11.4606 49.14 12.2705 48.6 12.9005 47.88C13.9804 46.62 14.9704 45.45 16.0503 44.28C16.7703 44.64 17.5802 44.82 18.3002 44.91C17.8502 45.45 17.4902 46.08 16.8603 46.26C15.9603 46.62 14.8804 46.53 14.0704 47.16C13.6205 47.52 13.5305 48.24 13.9804 48.6C14.7004 49.32 15.8703 49.5 16.8603 49.59C18.3002 49.68 19.7401 49.23 20.8201 48.24C20.8201 50.49 20.8201 52.83 21.09 55.08C21.18 56.43 21.81 57.78 22.7999 58.59C23.6999 59.4 25.1398 59.58 26.3098 59.4C27.4797 59.13 28.7396 58.77 29.6396 58.05C30.6295 57.15 31.0795 55.89 31.2595 54.63C31.6195 52.38 31.8894 50.13 32.1594 47.79C34.6793 48.24 37.5591 47.7 39.449 45.9C39.809 45.54 40.259 44.82 39.809 44.37C39.449 43.92 38.7291 44.01 38.1891 44.1C36.9292 44.37 35.4892 44.64 34.2293 44.01C36.4792 40.41 38.2791 36.54 39.269 32.4C39.629 30.87 39.899 29.25 39.899 27.63C39.809 26.73 39.719 25.74 39.179 25.02C37.8291 23.22 35.8492 21.96 33.6893 21.33C31.0795 20.97 28.1097 21.15 25.4098 21.96Z" fill="black"/>
</svg>
