<svg width="133" height="52" viewBox="0 0 133 52" fill="none" xmlns="http://www.w3.org/2000/svg">
<g clip-path="url(#clip0_9_840)">
<mask id="mask0_9_840" style="mask-type:luminance" maskUnits="userSpaceOnUse" x="0" y="0" width="133" height="52">
<path d="M133 0H0V52H133V0Z" fill="white"/>
</mask>
<g mask="url(#mask0_9_840)">
<path d="M1.22899 51.2392L25.3657 26.1985C25.5169 26.0417 25.5459 25.7991 25.4198 25.621C23.9515 23.5467 21.2437 23.1872 20.24 21.7937C17.2666 17.6657 16.5121 15.3292 15.2345 15.4741C15.1452 15.4843 15.0656 15.5329 15.0029 15.5979L6.28347 24.6439C1.26733 29.8479 0.547989 41.3057 0.416066 50.8999C0.410106 51.3334 0.929825 51.5494 1.22899 51.2392Z" fill="#017CEE"/>
<path d="M50.6282 50.6203L25.8862 26.1921C25.7312 26.0391 25.4916 26.0097 25.3156 26.1373C23.2661 27.6234 22.9108 30.3638 21.5339 31.3797C17.4551 34.3889 15.1465 35.1526 15.2897 36.4457C15.2997 36.5361 15.3478 36.6166 15.4121 36.6799L24.3501 45.5047C29.492 50.5814 40.8132 51.3094 50.2929 51.4428C50.7212 51.4491 50.9347 50.9231 50.6282 50.6203Z" fill="#00AD46"/>
<path fill-rule="evenodd" clip-rule="evenodd" d="M24.3501 45.5047C21.5413 42.7318 20.2382 37.2456 25.6229 25.9324C16.8717 29.8905 13.8049 35.0934 15.3136 36.583L24.3501 45.5047Z" fill="#04D659"/>
<path d="M50.0159 0.62529L25.8792 25.6659C25.728 25.8228 25.699 26.0653 25.8251 26.2434C27.2934 28.3177 30.0013 28.6772 31.0048 30.0708C33.9784 34.1987 34.7329 36.5351 36.0104 36.3904C36.0996 36.3803 36.1792 36.3316 36.242 36.2665L44.9613 27.2205C49.9777 22.0165 50.697 10.5588 50.8288 0.964523C50.8347 0.530968 50.3151 0.314919 50.0159 0.62529Z" fill="#00C7D4"/>
<path fill-rule="evenodd" clip-rule="evenodd" d="M44.9622 27.2205C42.2221 30.0631 36.8014 31.3821 25.623 25.9324C29.5339 34.7892 34.6748 37.8931 36.1466 36.3661L44.9622 27.2205Z" fill="#11E1EE"/>
<path d="M0.617562 1.24418L25.3595 25.6723C25.5145 25.8253 25.7541 25.8547 25.9301 25.727C27.9796 24.2411 28.3348 21.5006 29.7116 20.4847C33.7906 17.4754 36.0992 16.7119 35.9559 15.4187C35.9459 15.3284 35.8978 15.2479 35.8337 15.1844L26.8955 6.35969C21.7536 1.28298 10.4325 0.554953 0.952749 0.421438C0.524365 0.415403 0.310893 0.941397 0.617562 1.24418Z" fill="#E43921"/>
<path fill-rule="evenodd" clip-rule="evenodd" d="M26.8959 6.35962C29.7045 9.13276 31.0078 14.6188 25.623 25.9321C34.3742 21.9741 37.4411 16.771 35.9323 15.2815L26.8959 6.35962Z" fill="#FF7557"/>
<path fill-rule="evenodd" clip-rule="evenodd" d="M6.2832 24.644C9.02327 21.8014 14.4438 20.4825 25.6222 25.9322C21.7113 17.0753 16.5704 13.9716 15.0987 15.4984L6.2832 24.644Z" fill="#0CB6FF"/>
<path d="M25.6391 27.021C26.2352 27.0136 26.7123 26.5185 26.705 25.9153C26.6976 25.3121 26.2084 24.8291 25.6124 24.8366C25.0164 24.844 24.5392 25.3391 24.5466 25.9423C24.5539 26.5456 25.0431 27.0285 25.6391 27.021Z" fill="#4A4848"/>
<path d="M57.5541 17.0642C57.5033 17.0642 57.4587 17.0449 57.4205 17.0062C57.3824 16.9675 57.3633 16.9224 57.3633 16.8709C57.3633 16.8194 57.3665 16.7839 57.3727 16.7646L59.7408 10.5122C59.7916 10.3705 59.8935 10.2996 60.0465 10.2996H60.6956C60.8483 10.2996 60.9502 10.3705 61.0013 10.5122L63.3597 16.7646L63.3788 16.8709C63.3788 16.9224 63.3597 16.9675 63.3216 17.0062C63.2834 17.0449 63.2388 17.0642 63.1877 17.0642H62.7009C62.6307 17.0642 62.5767 17.0481 62.5385 17.0159C62.5004 16.9772 62.4748 16.9385 62.4622 16.8999L61.937 15.5277H58.8051L58.2799 16.8999C58.2673 16.9385 58.2385 16.9772 58.1939 17.0159C58.1557 17.0481 58.1049 17.0642 58.0412 17.0642H57.5541ZM61.6601 14.6966L60.3709 11.266L59.082 14.6966H61.6601ZM64.5048 18.9003C64.4411 18.9003 64.387 18.8777 64.3424 18.8327C64.3042 18.794 64.2852 18.7424 64.2852 18.678V12.2613C64.2852 12.1969 64.3042 12.1454 64.3424 12.1067C64.387 12.0616 64.4411 12.0391 64.5048 12.0391H64.944C65.0077 12.0391 65.0585 12.0616 65.0967 12.1067C65.1413 12.1454 65.1636 12.1969 65.1636 12.2613V12.6866C65.52 12.1905 66.042 11.9424 66.7294 11.9424C67.3979 11.9424 67.8976 12.1551 68.2285 12.5803C68.5658 13.0054 68.7473 13.5531 68.7728 14.2231C68.7793 14.2939 68.7825 14.4035 68.7825 14.5516C68.7825 14.6998 68.7793 14.8093 68.7728 14.8802C68.7473 15.5438 68.5658 16.0914 68.2285 16.523C67.8911 16.9482 67.3914 17.1608 66.7294 17.1608C66.0676 17.1608 65.5517 16.9192 65.1827 16.436V18.678C65.1827 18.7424 65.1636 18.794 65.1254 18.8327C65.0873 18.8777 65.0362 18.9003 64.9725 18.9003H64.5048ZM66.5288 16.3781C66.981 16.3781 67.3086 16.2363 67.5124 15.9529C67.7226 15.6694 67.8371 15.2957 67.8562 14.8319C67.8626 14.7675 67.8659 14.6741 67.8659 14.5516C67.8659 13.334 67.4202 12.7252 66.5288 12.7252C66.0896 12.7252 65.7587 12.8734 65.5359 13.1697C65.3195 13.4596 65.2018 13.8075 65.1827 14.2134L65.173 14.5806L65.1827 14.9575C65.1953 15.3376 65.3163 15.6694 65.5456 15.9529C65.7746 16.2363 66.1025 16.3781 66.5288 16.3781ZM71.348 17.1608C71.0362 17.1608 70.7467 17.0964 70.4792 16.9675C70.2117 16.8387 69.9986 16.6648 69.8394 16.4457C69.6868 16.2202 69.6101 15.9722 69.6101 15.7016C69.6101 15.2764 69.7822 14.9285 70.126 14.6579C70.476 14.3809 70.9469 14.2005 71.5391 14.1168L72.9619 13.9138V13.6336C72.9619 12.9765 72.5893 12.6479 71.8447 12.6479C71.5646 12.6479 71.3353 12.7091 71.1571 12.8315C70.9789 12.9475 70.8453 13.086 70.7561 13.2471C70.737 13.305 70.7114 13.3469 70.6797 13.3727C70.6542 13.3984 70.616 13.4113 70.5652 13.4113H70.1545C70.0972 13.4113 70.0464 13.392 70.0018 13.3533C69.9636 13.3082 69.9446 13.2567 69.9446 13.1987C69.9507 13.0441 70.0209 12.8702 70.1545 12.6769C70.2945 12.4772 70.5077 12.3064 70.7942 12.1647C71.0808 12.0165 71.434 11.9424 71.8541 11.9424C72.567 11.9424 73.0796 12.1132 73.3914 12.4546C73.7032 12.7896 73.8594 13.2084 73.8594 13.7109V16.8419C73.8594 16.9063 73.8371 16.9611 73.7925 17.0062C73.7543 17.0449 73.7032 17.0642 73.6398 17.0642H73.2006C73.1368 17.0642 73.0828 17.0449 73.0382 17.0062C73 16.9611 72.9809 16.9063 72.9809 16.8419V16.4264C72.8409 16.6326 72.6371 16.8065 72.3697 16.9482C72.1025 17.09 71.7619 17.1608 71.348 17.1608ZM71.5485 16.436C71.9625 16.436 72.2998 16.3008 72.5608 16.0302C72.828 15.7532 72.9619 15.3569 72.9619 14.8416V14.571L71.8541 14.7352C71.4023 14.7997 71.0617 14.9092 70.8324 15.0638C70.6034 15.212 70.4886 15.4021 70.4886 15.634C70.4886 15.8917 70.5937 16.0914 70.8039 16.2331C71.0138 16.3684 71.2622 16.436 71.5485 16.436ZM77.2372 17.1608C76.5561 17.1608 76.0212 16.9675 75.633 16.581C75.251 16.188 75.0473 15.6404 75.0217 14.9382L75.0124 14.5516L75.0217 14.1651C75.0473 13.4629 75.251 12.9185 75.633 12.5319C76.0212 12.1389 76.5561 11.9424 77.2372 11.9424C77.6955 11.9424 78.0837 12.0262 78.4019 12.1937C78.7202 12.3612 78.956 12.5674 79.1086 12.8122C79.2678 13.057 79.3538 13.3018 79.3664 13.5466C79.3729 13.6111 79.3538 13.6626 79.3092 13.7012C79.2645 13.7399 79.2105 13.7592 79.1468 13.7592H78.6885C78.6248 13.7592 78.5769 13.7463 78.5452 13.7205C78.5135 13.6948 78.4815 13.6433 78.4498 13.5659C78.3415 13.2567 78.1888 13.0377 77.9915 12.9088C77.7942 12.7735 77.5458 12.7059 77.2466 12.7059C76.852 12.7059 76.537 12.8315 76.3012 13.0828C76.0722 13.3276 75.9481 13.7044 75.929 14.2134L75.9196 14.5613L75.929 14.8899C75.9481 15.4053 76.0722 15.7854 76.3012 16.0302C76.5305 16.275 76.8456 16.3974 77.2466 16.3974C77.5458 16.3974 77.7942 16.333 77.9915 16.2041C78.1888 16.0688 78.3415 15.8466 78.4498 15.5373C78.4815 15.46 78.5135 15.4085 78.5452 15.3827C78.5769 15.3505 78.6248 15.3344 78.6885 15.3344H79.1468C79.2105 15.3344 79.2645 15.3569 79.3092 15.4021C79.3538 15.4407 79.3729 15.4922 79.3664 15.5567C79.3538 15.795 79.2678 16.0398 79.1086 16.2911C78.956 16.5359 78.7202 16.7421 78.4019 16.9096C78.0901 17.0771 77.7017 17.1608 77.2372 17.1608ZM80.7296 17.0642C80.6659 17.0642 80.6119 17.0449 80.5672 17.0062C80.5291 16.9611 80.51 16.9063 80.51 16.8419V10.4253C80.51 10.3608 80.5291 10.3093 80.5672 10.2706C80.6119 10.2255 80.6659 10.203 80.7296 10.203H81.207C81.2707 10.203 81.3215 10.2255 81.3596 10.2706C81.4043 10.3093 81.4266 10.3608 81.4266 10.4253V12.6769C81.6113 12.4385 81.8276 12.2581 82.0757 12.1357C82.3241 12.0069 82.6327 11.9424 83.002 11.9424C83.613 11.9424 84.0875 12.1422 84.4248 12.5416C84.7686 12.9346 84.9404 13.4596 84.9404 14.1168V16.8419C84.9404 16.9063 84.9181 16.9611 84.8734 17.0062C84.8353 17.0449 84.7845 17.0642 84.7208 17.0642H84.2434C84.1797 17.0642 84.1256 17.0449 84.081 17.0062C84.0428 16.9611 84.0238 16.9063 84.0238 16.8419V14.1651C84.0238 13.7077 83.9122 13.3533 83.6896 13.1021C83.473 12.8508 83.1579 12.7252 82.7443 12.7252C82.3432 12.7252 82.0217 12.8541 81.7798 13.1118C81.5443 13.363 81.4266 13.7141 81.4266 14.1651V16.8419C81.4266 16.9063 81.4043 16.9611 81.3596 17.0062C81.3215 17.0449 81.2707 17.0642 81.207 17.0642H80.7296ZM88.305 17.1608C87.6494 17.1608 87.1242 16.9579 86.7296 16.552C86.3411 16.1397 86.128 15.5792 86.0898 14.8706L86.0801 14.542L86.0898 14.2231C86.1341 13.5273 86.3508 12.9732 86.739 12.5609C87.1336 12.1486 87.6523 11.9424 88.2953 11.9424C89.002 11.9424 89.5496 12.1712 89.9377 12.6286C90.3261 13.0796 90.5202 13.6916 90.5202 14.4647V14.6289C90.5202 14.6934 90.4979 14.7481 90.4533 14.7932C90.4151 14.8319 90.3643 14.8512 90.3006 14.8512H86.9967V14.9382C87.0158 15.3569 87.14 15.7145 87.3693 16.0108C87.6048 16.3008 87.9134 16.4457 88.2953 16.4457C88.5883 16.4457 88.827 16.3877 89.0114 16.2718C89.2025 16.1494 89.3426 16.0237 89.4315 15.8949C89.4891 15.8176 89.5302 15.7725 89.5557 15.7596C89.5877 15.7403 89.6418 15.7306 89.7181 15.7306H90.1861C90.2434 15.7306 90.2909 15.7467 90.3291 15.7789C90.3675 15.8111 90.3866 15.8562 90.3866 15.9142C90.3866 16.0559 90.2974 16.2267 90.1192 16.4264C89.9474 16.6261 89.7022 16.8 89.384 16.9482C89.0719 17.09 88.7122 17.1608 88.305 17.1608ZM89.613 14.1844V14.1554C89.613 13.7109 89.492 13.3501 89.2501 13.0731C89.0146 12.7896 88.6964 12.6479 88.2953 12.6479C87.8943 12.6479 87.576 12.7896 87.3405 13.0731C87.1115 13.3501 86.9967 13.7109 86.9967 14.1554V14.1844H89.613Z" fill="white"/>
<path d="M57.3719 16.7646L57.3034 16.738L57.3023 16.7411L57.3719 16.7646ZM59.74 10.5122L59.8084 10.5387L59.809 10.5376L59.74 10.5122ZM61.0004 10.5122L60.9314 10.5376L60.9317 10.5387L61.0004 10.5122ZM63.3589 16.7646L63.4311 16.7513C63.4303 16.7468 63.4291 16.7423 63.4273 16.7381L63.3589 16.7646ZM63.378 16.8709H63.4514C63.4514 16.8664 63.4508 16.8619 63.4502 16.8576L63.378 16.8709ZM62.5377 17.0158L62.4858 17.0683C62.4872 17.0699 62.489 17.0714 62.4907 17.0729L62.5377 17.0158ZM62.4614 16.8999L62.531 16.8763L62.5298 16.873L62.4614 16.8999ZM61.9361 15.5276L62.0045 15.5008C61.9937 15.4722 61.9664 15.4533 61.9361 15.4533V15.5276ZM58.8043 15.5276V15.4533C58.7741 15.4533 58.7468 15.4722 58.7359 15.5008L58.8043 15.5276ZM58.2791 16.8999L58.2107 16.873L58.2095 16.8764L58.2791 16.8999ZM58.193 17.0158L58.24 17.0729L58.2409 17.0722L58.193 17.0158ZM61.6593 14.6965V14.7708C61.6834 14.7708 61.706 14.7588 61.7198 14.7387C61.7333 14.7186 61.7365 14.693 61.728 14.6701L61.6593 14.6965ZM60.3701 11.2659L60.4388 11.2395C60.4279 11.2107 60.4006 11.1917 60.3701 11.1917C60.3398 11.1917 60.3125 11.2107 60.3017 11.2395L60.3701 11.2659ZM59.0812 14.6965L59.0125 14.6701C59.004 14.693 59.0069 14.7186 59.0207 14.7387C59.0345 14.7588 59.0571 14.7708 59.0812 14.7708V14.6965ZM57.5533 16.9898C57.5234 16.9898 57.4969 16.9793 57.4717 16.9536L57.3677 17.0587C57.4188 17.1103 57.4817 17.1384 57.5533 17.1384V16.9898ZM57.4717 16.9536C57.4464 16.928 57.4359 16.9014 57.4359 16.8709H57.2891C57.2891 16.9434 57.3167 17.007 57.3677 17.0587L57.4717 16.9536ZM57.4359 16.8709C57.4359 16.8187 57.4394 16.7946 57.4417 16.788L57.3023 16.7411C57.2917 16.7732 57.2891 16.8199 57.2891 16.8709H57.4359ZM57.4406 16.7911L59.8084 10.5387L59.6713 10.4856L57.3034 16.738L57.4406 16.7911ZM59.809 10.5376C59.8305 10.4782 59.8601 10.4389 59.8962 10.4139C59.9323 10.3888 59.9805 10.3739 60.0457 10.3739V10.2253C59.9579 10.2253 59.8789 10.2457 59.8131 10.2915C59.7471 10.3374 59.7007 10.4044 59.671 10.4868L59.809 10.5376ZM60.0457 10.3739H60.6948V10.2253H60.0457V10.3739ZM60.6948 10.3739C60.76 10.3739 60.8081 10.3888 60.8442 10.4139C60.8801 10.4389 60.91 10.4782 60.9314 10.5376L61.0694 10.4868C61.0398 10.4044 60.9934 10.3374 60.9273 10.2915C60.8616 10.2457 60.7826 10.2253 60.6948 10.2253V10.3739ZM60.9317 10.5387L63.2902 16.7911L63.4273 16.7381L61.0688 10.4857L60.9317 10.5387ZM63.2867 16.7779L63.3058 16.8841L63.4502 16.8576L63.4311 16.7513L63.2867 16.7779ZM63.3046 16.8709C63.3046 16.9014 63.294 16.928 63.2688 16.9536L63.3724 17.0587C63.4235 17.007 63.4514 16.9434 63.4514 16.8709H63.3046ZM63.2688 16.9536C63.2435 16.9793 63.2171 16.9898 63.1869 16.9898V17.1384C63.2585 17.1384 63.3216 17.1103 63.3724 17.0587L63.2688 16.9536ZM63.1869 16.9898H62.7001V17.1384H63.1869V16.9898ZM62.7001 16.9898C62.6402 16.9898 62.6052 16.9761 62.5847 16.9588L62.4907 17.0729C62.5465 17.12 62.6196 17.1384 62.7001 17.1384V16.9898ZM62.5897 16.9633C62.5568 16.9301 62.5389 16.901 62.531 16.8763L62.3918 16.9233C62.4091 16.976 62.442 17.0242 62.4858 17.0683L62.5897 16.9633ZM62.5298 16.873L62.0045 15.5008L61.8677 15.5544L62.393 16.9267L62.5298 16.873ZM61.9361 15.4533H58.8043V15.6019H61.9361V15.4533ZM58.7359 15.5008L58.2107 16.873L58.3475 16.9267L58.8727 15.5544L58.7359 15.5008ZM58.2095 16.8764C58.2024 16.8977 58.1842 16.9257 58.1455 16.9594L58.2409 17.0722C58.2911 17.0286 58.3302 16.9793 58.3487 16.9233L58.2095 16.8764ZM58.1461 16.9588C58.1246 16.977 58.0918 16.9898 58.0404 16.9898V17.1384C58.1164 17.1384 58.1854 17.119 58.24 17.0729L58.1461 16.9588ZM58.0404 16.9898H57.5533V17.1384H58.0404V16.9898ZM61.728 14.6701L60.4388 11.2395L60.3017 11.2923L61.5906 14.7229L61.728 14.6701ZM60.3017 11.2395L59.0125 14.6701L59.1499 14.7229L60.4388 11.2923L60.3017 11.2395ZM59.0812 14.7708H61.6593V14.6223H59.0812V14.7708ZM65.0958 12.1067L65.0401 12.155C65.0427 12.1579 65.0453 12.1606 65.048 12.1631L65.0958 12.1067ZM65.1628 12.6865H65.0894C65.0894 12.7187 65.1099 12.7472 65.1402 12.7571C65.1704 12.7671 65.2033 12.7562 65.2221 12.7302L65.1628 12.6865ZM68.2277 12.5802L68.1701 12.6262L68.1704 12.6267L68.2277 12.5802ZM68.772 14.223L68.6986 14.2259L68.6989 14.2297L68.772 14.223ZM68.772 14.8802L68.6989 14.8734L68.6986 14.8773L68.772 14.8802ZM68.2277 16.523L68.2849 16.5695L68.2852 16.5691L68.2277 16.523ZM65.1819 16.436L65.24 16.3906C65.2206 16.3654 65.1877 16.3554 65.1581 16.3657C65.1284 16.376 65.1085 16.4042 65.1085 16.436H65.1819ZM65.1246 18.8326L65.0726 18.7801C65.0712 18.7814 65.07 18.7828 65.0688 18.7843L65.1246 18.8326ZM67.5116 15.9528L67.4528 15.9082L67.4523 15.9091L67.5116 15.9528ZM67.8554 14.8318L67.7823 14.8244C67.7823 14.8259 67.782 14.8273 67.782 14.8287L67.8554 14.8318ZM65.1819 14.2134L65.1085 14.2098V14.2114L65.1819 14.2134ZM65.1722 14.5806L65.0988 14.5786V14.5825L65.1722 14.5806ZM65.1819 14.9574L65.1085 14.9594V14.96L65.1819 14.9574ZM64.5039 18.8259C64.4596 18.8259 64.4241 18.8111 64.3936 18.7801L64.2896 18.8851C64.348 18.9443 64.4209 18.9745 64.5039 18.9745V18.8259ZM64.3936 18.7801C64.3715 18.7578 64.3577 18.7265 64.3577 18.678H64.2109C64.2109 18.7583 64.2353 18.8301 64.2896 18.8851L64.3936 18.7801ZM64.3577 18.678V12.2613H64.2109V18.678H64.3577ZM64.3577 12.2613C64.3577 12.2128 64.3715 12.1815 64.3936 12.1592L64.2896 12.0541C64.2353 12.1092 64.2109 12.181 64.2109 12.2613H64.3577ZM64.3936 12.1592C64.4241 12.1282 64.4596 12.1133 64.5039 12.1133V11.9647C64.4209 11.9647 64.348 11.995 64.2896 12.0541L64.3936 12.1592ZM64.5039 12.1133H64.9432V11.9647H64.5039V12.1133ZM64.9432 12.1133C64.9875 12.1133 65.0172 12.1279 65.0401 12.155L65.1516 12.0583C65.0982 11.9953 65.0263 11.9647 64.9432 11.9647V12.1133ZM65.048 12.1631C65.075 12.1863 65.0894 12.2165 65.0894 12.2613H65.2362C65.2362 12.1773 65.2059 12.1043 65.1437 12.0503L65.048 12.1631ZM65.0894 12.2613V12.6865H65.2362V12.2613H65.0894ZM65.2221 12.7302C65.5627 12.2561 66.0609 12.0167 66.7285 12.0167V11.8681C66.0213 11.8681 65.4758 12.1247 65.1035 12.6428L65.2221 12.7302ZM66.7285 12.0167C67.3806 12.0167 67.8565 12.2233 68.1701 12.6262L68.2855 12.5342C67.937 12.0867 67.4135 11.8681 66.7285 11.8681V12.0167ZM68.1704 12.6267C68.496 13.0369 68.6736 13.5681 68.6986 14.2259L68.8454 14.2202C68.8195 13.538 68.6343 12.9739 68.2849 12.5337L68.1704 12.6267ZM68.6989 14.2297C68.705 14.2971 68.7083 14.4038 68.7083 14.5516H68.8551C68.8551 14.403 68.8518 14.2907 68.8451 14.2163L68.6989 14.2297ZM68.7083 14.5516C68.7083 14.6994 68.705 14.8061 68.6989 14.8734L68.8451 14.8869C68.8518 14.8125 68.8551 14.7001 68.8551 14.5516H68.7083ZM68.6986 14.8773C68.6736 15.5284 68.496 16.06 68.1701 16.4769L68.2852 16.5691C68.6343 16.1227 68.8195 15.559 68.8454 14.883L68.6986 14.8773ZM68.1704 16.4765C67.8504 16.8801 67.3742 17.0865 66.7285 17.0865V17.2351C67.4073 17.2351 67.9305 17.0162 68.2849 16.5695L68.1704 16.4765ZM66.7285 17.0865C66.0867 17.0865 65.5938 16.8536 65.24 16.3906L65.1237 16.4814C65.5083 16.9848 66.0465 17.2351 66.7285 17.2351V17.0865ZM65.1085 16.436V18.678H65.2553V16.436H65.1085ZM65.1085 18.678C65.1085 18.7265 65.0947 18.7578 65.0726 18.7801L65.1766 18.8851C65.2309 18.8301 65.2553 18.7583 65.2553 18.678H65.1085ZM65.0688 18.7843C65.0459 18.8114 65.016 18.8259 64.9716 18.8259V18.9745C65.0547 18.9745 65.127 18.944 65.1804 18.8809L65.0688 18.7843ZM64.9716 18.8259H64.5039V18.9745H64.9716V18.8259ZM66.528 16.4523C66.9957 16.4523 67.3495 16.3048 67.5709 15.9965L67.4523 15.9091C67.2664 16.1677 66.9646 16.3037 66.528 16.3037V16.4523ZM67.5703 15.9974C67.7917 15.6987 67.9091 15.3092 67.9288 14.8349L67.782 14.8287C67.7635 15.2822 67.6516 15.64 67.4528 15.9082L67.5703 15.9974ZM67.9285 14.8392C67.9352 14.771 67.9385 14.6747 67.9385 14.5516H67.7917C67.7917 14.6733 67.7884 14.7638 67.7823 14.8244L67.9285 14.8392ZM67.9385 14.5516C67.9385 13.9358 67.826 13.4604 67.5897 13.1375C67.3504 12.8105 66.9919 12.6509 66.528 12.6509V12.7994C66.9555 12.7994 67.2655 12.9442 67.4716 13.226C67.681 13.5119 67.7917 13.9498 67.7917 14.5516H67.9385ZM66.528 12.6509C66.0709 12.6509 65.7162 12.8062 65.4766 13.1247L65.5935 13.2147C65.7996 12.9404 66.107 12.7994 66.528 12.7994V12.6509ZM65.4766 13.1247C65.2503 13.4279 65.1281 13.7909 65.1085 14.2098L65.2553 14.2169C65.2738 13.8241 65.3871 13.491 65.5938 13.2145L65.4766 13.1247ZM65.1085 14.2114L65.0988 14.5786L65.2456 14.5825L65.2553 14.2153L65.1085 14.2114ZM65.0988 14.5825L65.1085 14.9594L65.2553 14.9555L65.2456 14.5787L65.0988 14.5825ZM65.1085 14.96C65.1217 15.3557 65.2482 15.7033 65.4878 15.9998L65.6014 15.9058C65.383 15.6354 65.2673 15.3194 65.2553 14.9549L65.1085 14.96ZM65.4878 15.9998C65.7335 16.3037 66.0841 16.4523 66.528 16.4523V16.3037C66.1193 16.3037 65.8143 16.1688 65.6014 15.9058L65.4878 15.9998ZM69.8386 16.4457L69.7781 16.4877L69.7796 16.4897L69.8386 16.4457ZM70.1252 14.6579L70.1701 14.7165L70.1704 14.7164L70.1252 14.6579ZM71.5383 14.1167L71.5482 14.1903H71.5485L71.5383 14.1167ZM72.961 13.9138L72.9713 13.9873C73.0074 13.9822 73.0344 13.9508 73.0344 13.9138H72.961ZM71.1563 12.8314L71.1959 12.894L71.1974 12.8929L71.1563 12.8314ZM70.7552 13.247L70.6912 13.2107C70.6889 13.2148 70.6871 13.2191 70.6857 13.2235L70.7552 13.247ZM70.6789 13.3726L70.6331 13.3146C70.6308 13.3163 70.629 13.3182 70.6269 13.3201L70.6789 13.3726ZM70.001 13.3533L69.9452 13.4016C69.9475 13.4045 69.9502 13.4072 69.9531 13.4097L70.001 13.3533ZM69.9437 13.1987L69.8703 13.1956V13.1987H69.9437ZM70.1537 12.6768L70.0938 12.6338L70.0935 12.6342L70.1537 12.6768ZM70.7934 12.1647L70.8257 12.2314L70.8269 12.2308L70.7934 12.1647ZM73.3906 12.4546L73.3368 12.505L73.3371 12.5055L73.3906 12.4546ZM73.0374 17.0062L72.9816 17.0545C72.9839 17.0574 72.9866 17.0601 72.9895 17.0626L73.0374 17.0062ZM72.9801 16.4263H73.0535C73.0535 16.3938 73.0324 16.365 73.0019 16.3554C72.971 16.3458 72.9378 16.3574 72.9196 16.3843L72.9801 16.4263ZM72.961 14.5709H73.0344C73.0344 14.5493 73.025 14.5288 73.0089 14.5147C72.9928 14.5006 72.9713 14.4943 72.9502 14.4974L72.961 14.5709ZM71.8533 14.7352L71.8636 14.8088L71.8639 14.8087L71.8533 14.7352ZM70.8316 15.0638L70.8712 15.1264L70.8724 15.1256L70.8316 15.0638ZM70.8031 16.233L70.7623 16.2949L70.7635 16.2957L70.8031 16.233ZM71.3471 17.0865C71.0456 17.0865 70.767 17.0243 70.5098 16.9004L70.4467 17.0346C70.7244 17.1684 71.0251 17.2351 71.3471 17.2351V17.0865ZM70.5098 16.9004C70.2523 16.7763 70.0491 16.6099 69.8976 16.4016L69.7796 16.4897C69.9464 16.7196 70.1695 16.901 70.4467 17.0346L70.5098 16.9004ZM69.8991 16.4036C69.7547 16.1904 69.6827 15.957 69.6827 15.7015H69.5359C69.5359 15.9873 69.617 16.25 69.7781 16.4877L69.8991 16.4036ZM69.6827 15.7015C69.6827 15.3002 69.8436 14.9736 70.1701 14.7165L70.08 14.5992C69.7191 14.8833 69.5359 15.2525 69.5359 15.7015H69.6827ZM70.1704 14.7164C70.5072 14.4497 70.9649 14.2728 71.5482 14.1903L71.528 14.0431C70.9276 14.1281 70.4431 14.3119 70.08 14.5992L70.1704 14.7164ZM71.5485 14.1903L72.9713 13.9873L72.9508 13.8402L71.528 14.0431L71.5485 14.1903ZM73.0344 13.9138V13.6335H72.8876V13.9138H73.0344ZM73.0344 13.6335C73.0344 13.2907 72.9367 13.0208 72.73 12.8383C72.525 12.6575 72.2253 12.5736 71.8439 12.5736V12.7221C72.2071 12.7221 72.466 12.8025 72.6334 12.9503C72.799 13.0963 72.8876 13.3193 72.8876 13.6335H73.0344ZM71.8439 12.5736C71.5532 12.5736 71.3087 12.6371 71.1152 12.77L71.1974 12.8929C71.3603 12.781 71.5741 12.7221 71.8439 12.7221V12.5736ZM71.1167 12.769C70.9299 12.8904 70.7869 13.0374 70.6912 13.2107L70.8192 13.2833C70.9017 13.1344 71.0262 13.0044 71.1959 12.894L71.1167 12.769ZM70.6857 13.2235C70.6689 13.274 70.6495 13.3011 70.6331 13.3146L70.7247 13.4306C70.7717 13.3926 70.8034 13.3359 70.8248 13.2705L70.6857 13.2235ZM70.6269 13.3201C70.6202 13.327 70.604 13.337 70.5644 13.337V13.4855C70.6266 13.4855 70.6868 13.4698 70.7309 13.4251L70.6269 13.3201ZM70.5644 13.337H70.1537V13.4855H70.5644V13.337ZM70.1537 13.337C70.1143 13.337 70.0803 13.3243 70.0488 13.2969L69.9531 13.4097C70.0107 13.4596 70.0785 13.4855 70.1537 13.4855V13.337ZM70.0568 13.3049C70.0295 13.2729 70.0171 13.2384 70.0171 13.1987H69.8703C69.8703 13.2748 69.8959 13.3434 69.9452 13.4016L70.0568 13.3049ZM70.0168 13.2018C70.0224 13.0669 70.0844 12.9067 70.2138 12.7194L70.0935 12.6342C69.9558 12.8335 69.8774 13.0212 69.8703 13.1956L70.0168 13.2018ZM70.2135 12.7198C70.3445 12.5329 70.5468 12.3694 70.8257 12.2314L70.7611 12.0979C70.4672 12.2434 70.2429 12.4213 70.0938 12.6338L70.2135 12.7198ZM70.8269 12.2308C71.1002 12.0894 71.4414 12.0167 71.8533 12.0167V11.8681C71.4249 11.8681 71.0594 11.9436 70.7599 12.0985L70.8269 12.2308ZM71.8533 12.0167C72.5571 12.0167 73.0447 12.1854 73.3368 12.505L73.4446 12.4042C73.1125 12.0408 72.5755 11.8681 71.8533 11.8681V12.0167ZM73.3371 12.5055C73.6351 12.8254 73.7852 13.2254 73.7852 13.7108H73.932C73.932 13.1913 73.7699 12.7537 73.444 12.4036L73.3371 12.5055ZM73.7852 13.7108V16.8419H73.932V13.7108H73.7852ZM73.7852 16.8419C73.7852 16.8868 73.7705 16.9226 73.7397 16.9536L73.8436 17.0587C73.902 16.9995 73.932 16.9258 73.932 16.8419H73.7852ZM73.7397 16.9536C73.7176 16.9759 73.6868 16.9898 73.639 16.9898V17.1384C73.7182 17.1384 73.7893 17.1137 73.8436 17.0587L73.7397 16.9536ZM73.639 16.9898H73.1997V17.1384H73.639V16.9898ZM73.1997 16.9898C73.1519 16.9898 73.1152 16.9758 73.0849 16.9498L72.9895 17.0626C73.0485 17.1137 73.1202 17.1384 73.1997 17.1384V16.9898ZM73.0932 16.9578C73.0673 16.9273 73.0535 16.8902 73.0535 16.8419H72.9067C72.9067 16.9224 72.9311 16.9948 72.9816 17.0545L73.0932 16.9578ZM73.0535 16.8419V16.4263H72.9067V16.8419H73.0535ZM72.9196 16.3843C72.7875 16.5785 72.594 16.745 72.3348 16.8824L72.4029 17.014C72.6786 16.8679 72.8923 16.6865 73.0406 16.4684L72.9196 16.3843ZM72.3348 16.8824C72.0811 17.0168 71.7535 17.0865 71.3471 17.0865V17.2351C71.7687 17.2351 72.1219 17.163 72.4029 17.014L72.3348 16.8824ZM71.5477 16.5103C71.979 16.5103 72.336 16.3685 72.6125 16.082L72.5074 15.9782C72.2617 16.2329 71.944 16.3617 71.5477 16.3617V16.5103ZM72.6125 16.082C72.897 15.787 73.0344 15.3697 73.0344 14.8415H72.8876C72.8876 15.3441 72.7573 15.7192 72.5074 15.9782L72.6125 16.082ZM73.0344 14.8415V14.5709H72.8876V14.8415H73.0344ZM72.9502 14.4974L71.8427 14.6617L71.8639 14.8087L72.9716 14.6444L72.9502 14.4974ZM71.843 14.6616C71.3865 14.7267 71.0333 14.8384 70.7911 15.002L70.8724 15.1256C71.0882 14.9799 71.4161 14.8725 71.8636 14.8088L71.843 14.6616ZM70.7922 15.0012C70.5465 15.16 70.4144 15.3716 70.4144 15.6339H70.5612C70.5612 15.4324 70.6586 15.2639 70.8712 15.1264L70.7922 15.0012ZM70.4144 15.6339C70.4144 15.9162 70.5315 16.1392 70.7623 16.2949L70.8436 16.1712C70.6542 16.0434 70.5612 15.867 70.5612 15.6339H70.4144ZM70.7635 16.2957C70.9872 16.4397 71.2494 16.5103 71.5477 16.5103V16.3617C71.2731 16.3617 71.0389 16.297 70.8424 16.1704L70.7635 16.2957ZM75.6322 16.5809L75.5799 16.6331L75.5808 16.6339L75.6322 16.5809ZM75.0209 14.9381L74.9478 14.94V14.9409L75.0209 14.9381ZM75.0115 14.5516L74.9381 14.5497V14.5534L75.0115 14.5516ZM75.0209 14.1651L74.9478 14.1623V14.1632L75.0209 14.1651ZM79.1078 12.8121L79.0456 12.8518L79.0464 12.853L79.1078 12.8121ZM79.3656 13.5465L79.2922 13.5505L79.2925 13.5539L79.3656 13.5465ZM78.449 13.5659L78.3797 13.5907L78.3812 13.5944L78.449 13.5659ZM77.9907 12.9088L77.9496 12.9703L77.9507 12.9712L77.9907 12.9088ZM75.9282 14.2134L75.8548 14.2105V14.2113L75.9282 14.2134ZM75.9188 14.5613L75.8454 14.5592C75.8454 14.5606 75.8454 14.562 75.8454 14.5634L75.9188 14.5613ZM75.9282 14.8898L75.8548 14.892V14.8926L75.9282 14.8898ZM77.9907 16.2041L78.0303 16.2665L78.0318 16.2656L77.9907 16.2041ZM78.449 15.5373L78.3812 15.5087L78.3797 15.5125L78.449 15.5373ZM78.5444 15.3827L78.5902 15.4407C78.5923 15.439 78.5943 15.4371 78.5964 15.4352L78.5444 15.3827ZM79.3083 15.402L79.2564 15.4545C79.2578 15.4559 79.259 15.4571 79.2605 15.4584L79.3083 15.402ZM79.3656 15.5566L79.2925 15.5492L79.2922 15.5526L79.3656 15.5566ZM79.1078 16.291L79.0459 16.251L79.0456 16.2514L79.1078 16.291ZM78.4011 16.9095L78.3674 16.8436L78.3668 16.8439L78.4011 16.9095ZM77.2364 17.0865C76.5694 17.0865 76.055 16.8976 75.6836 16.528L75.5808 16.6339C75.986 17.0374 76.5409 17.2351 77.2364 17.2351V17.0865ZM75.6845 16.5289C75.3186 16.1524 75.1193 15.6244 75.0943 14.9354L74.9478 14.9409C74.9737 15.6564 75.1818 16.2235 75.5799 16.6331L75.6845 16.5289ZM75.0943 14.9363L75.0849 14.5497L74.9381 14.5534L74.9478 14.94L75.0943 14.9363ZM75.0849 14.5534L75.0943 14.1669L74.9478 14.1632L74.9381 14.5497L75.0849 14.5534ZM75.0943 14.1678C75.1193 13.4787 75.3186 12.9542 75.6842 12.5844L75.5802 12.4794C75.1818 12.8826 74.9737 13.4469 74.9478 14.1623L75.0943 14.1678ZM75.6842 12.5844C76.0556 12.2085 76.5697 12.0167 77.2364 12.0167V11.8681C76.5406 11.8681 75.9854 12.0692 75.5802 12.4794L75.6842 12.5844ZM77.2364 12.0167C77.6859 12.0167 78.062 12.0989 78.3674 12.2596L78.4352 12.1277C78.1037 11.9534 77.7032 11.8681 77.2364 11.8681V12.0167ZM78.3674 12.2596C78.6771 12.4225 78.9014 12.6206 79.0456 12.8518L79.1698 12.7725C79.0086 12.514 78.762 12.2998 78.4352 12.1277L78.3674 12.2596ZM79.0464 12.853C79.1997 13.0889 79.2804 13.3212 79.2922 13.5505L79.439 13.5427C79.4255 13.2823 79.3339 13.025 79.1692 12.7713L79.0464 12.853ZM79.2925 13.5539C79.2969 13.5968 79.2851 13.6235 79.2605 13.6448L79.3562 13.7576C79.4208 13.7015 79.4472 13.6252 79.4387 13.5392L79.2925 13.5539ZM79.2605 13.6448C79.2305 13.6709 79.1938 13.6849 79.146 13.6849V13.8334C79.2255 13.8334 79.2969 13.8088 79.3562 13.7576L79.2605 13.6448ZM79.146 13.6849H78.6877V13.8334H79.146V13.6849ZM78.6877 13.6849C78.6319 13.6849 78.6034 13.6732 78.5902 13.6625L78.4986 13.7785C78.5488 13.8193 78.616 13.8334 78.6877 13.8334V13.6849ZM78.5902 13.6625C78.5738 13.6491 78.5476 13.6127 78.5168 13.5373L78.3812 13.5944C78.4137 13.6737 78.4513 13.7403 78.4986 13.7785L78.5902 13.6625ZM78.5183 13.5411C78.4064 13.2222 78.2458 12.9869 78.0303 12.8463L77.9507 12.9712C78.1301 13.0883 78.2749 13.2912 78.3797 13.5907L78.5183 13.5411ZM78.0318 12.8473C77.8195 12.7017 77.5559 12.6315 77.2458 12.6315V12.7801C77.5341 12.7801 77.767 12.8452 77.9496 12.9703L78.0318 12.8473ZM77.2458 12.6315C76.8345 12.6315 76.4989 12.7632 76.2473 13.0316L76.3539 13.1338C76.5732 12.8997 76.868 12.7801 77.2458 12.7801V12.6315ZM76.2473 13.0316C76.001 13.2947 75.8741 13.6924 75.8548 14.2105L76.0016 14.2162C76.0203 13.7163 76.1419 13.3603 76.3539 13.1338L76.2473 13.0316ZM75.8548 14.2113L75.8454 14.5592L75.9919 14.5633L76.0016 14.2154L75.8548 14.2113ZM75.8454 14.5634L75.8548 14.892L76.0016 14.8876L75.9919 14.5591L75.8454 14.5634ZM75.8548 14.8926C75.8741 15.4168 76.0007 15.8179 76.2473 16.0812L76.3539 15.979C76.1419 15.7527 76.0203 15.3936 76.0016 14.887L75.8548 14.8926ZM76.2473 16.0812C76.493 16.3438 76.8292 16.4716 77.2458 16.4716V16.3231C76.8606 16.3231 76.5664 16.2061 76.3539 15.979L76.2473 16.0812ZM77.2458 16.4716C77.5553 16.4716 77.8183 16.4049 78.0303 16.2665L77.9507 16.1416C77.7681 16.2609 77.5347 16.3231 77.2458 16.3231V16.4716ZM78.0318 16.2656C78.2461 16.1187 78.4064 15.881 78.5183 15.5621L78.3797 15.5125C78.2749 15.8121 78.1298 16.0189 77.9496 16.1426L78.0318 16.2656ZM78.5168 15.5658C78.5476 15.4905 78.5738 15.454 78.5902 15.4407L78.4986 15.3247C78.4513 15.3628 78.4137 15.4294 78.3812 15.5087L78.5168 15.5658ZM78.5964 15.4352C78.6096 15.4218 78.6354 15.4086 78.6877 15.4086V15.2601C78.6128 15.2601 78.5429 15.2791 78.4924 15.3301L78.5964 15.4352ZM78.6877 15.4086H79.146V15.2601H78.6877V15.4086ZM79.146 15.4086C79.1903 15.4086 79.2258 15.4235 79.2564 15.4545L79.3603 15.3495C79.3016 15.2903 79.2288 15.2601 79.146 15.2601V15.4086ZM79.2605 15.4584C79.2851 15.4796 79.2969 15.5064 79.2925 15.5492L79.4387 15.564C79.4472 15.4779 79.4208 15.4016 79.3562 15.3456L79.2605 15.4584ZM79.2922 15.5526C79.2804 15.7753 79.2 16.0078 79.0459 16.251L79.1695 16.3311C79.3339 16.0717 79.4252 15.8146 79.439 15.5606L79.2922 15.5526ZM79.0456 16.2514C78.9014 16.4826 78.6771 16.6807 78.3674 16.8436L78.4352 16.9754C78.762 16.8034 79.0086 16.5891 79.1698 16.3307L79.0456 16.2514ZM78.3668 16.8439C78.0682 17.0042 77.6927 17.0865 77.2364 17.0865V17.2351C77.7094 17.2351 78.1102 17.1499 78.4355 16.9751L78.3668 16.8439ZM80.5664 17.0062L80.5106 17.0545C80.513 17.0574 80.5156 17.0601 80.5186 17.0626L80.5664 17.0062ZM81.3588 10.2706L81.303 10.3189C81.3057 10.3218 81.3083 10.3245 81.311 10.327L81.3588 10.2706ZM81.4258 12.6768H81.3524C81.3524 12.7085 81.372 12.7367 81.4017 12.7471C81.4313 12.7574 81.4642 12.7476 81.4836 12.7227L81.4258 12.6768ZM82.0749 12.1357L82.1072 12.2025L82.1084 12.2018L82.0749 12.1357ZM84.424 12.5416L84.3682 12.5898L84.3691 12.5908L84.424 12.5416ZM84.0802 17.0062L84.0244 17.0545C84.0268 17.0574 84.0297 17.0601 84.0323 17.0626L84.0802 17.0062ZM83.6888 13.102L83.6333 13.1508L83.6339 13.1516L83.6888 13.102ZM80.7288 16.9898C80.6809 16.9898 80.6442 16.9758 80.6143 16.9498L80.5186 17.0626C80.5776 17.1137 80.6492 17.1384 80.7288 17.1384V16.9898ZM80.6222 16.9578C80.5964 16.9273 80.5826 16.8902 80.5826 16.8419H80.4358C80.4358 16.9224 80.4601 16.9948 80.5106 17.0545L80.6222 16.9578ZM80.5826 16.8419V10.4252H80.4358V16.8419H80.5826ZM80.5826 10.4252C80.5826 10.3767 80.5964 10.3454 80.6184 10.3231L80.5144 10.218C80.4601 10.2731 80.4358 10.3449 80.4358 10.4252H80.5826ZM80.6184 10.3231C80.6489 10.2921 80.6841 10.2772 80.7288 10.2772V10.1287C80.6457 10.1287 80.5729 10.1589 80.5144 10.218L80.6184 10.3231ZM80.7288 10.2772H81.2062V10.1287H80.7288V10.2772ZM81.2062 10.2772C81.2505 10.2772 81.2801 10.2918 81.303 10.3189L81.4146 10.2222C81.3612 10.1591 81.2893 10.1287 81.2062 10.1287V10.2772ZM81.311 10.327C81.338 10.3502 81.3524 10.3804 81.3524 10.4252H81.4992C81.4992 10.3412 81.4689 10.2682 81.4067 10.2142L81.311 10.327ZM81.3524 10.4252V12.6768H81.4992V10.4252H81.3524ZM81.4836 12.7227C81.6618 12.4924 81.8697 12.3195 82.1072 12.2025L82.0429 12.0689C81.7837 12.1966 81.5588 12.3845 81.3679 12.631L81.4836 12.7227ZM82.1084 12.2018C82.3436 12.0798 82.6401 12.0167 83.0012 12.0167V11.8681C82.6239 11.8681 82.303 11.9339 82.0415 12.0696L82.1084 12.2018ZM83.0012 12.0167C83.5952 12.0167 84.0473 12.2099 84.3682 12.5898L84.4798 12.4933C84.126 12.0744 83.6295 11.8681 83.0012 11.8681V12.0167ZM84.3691 12.5908C84.6979 12.967 84.8662 13.473 84.8662 14.1167H85.013C85.013 13.4462 84.8374 12.902 84.4789 12.4923L84.3691 12.5908ZM84.8662 14.1167V16.8419H85.013V14.1167H84.8662ZM84.8662 16.8419C84.8662 16.8868 84.8515 16.9226 84.8207 16.9536L84.9246 17.0587C84.983 16.9995 85.013 16.9258 85.013 16.8419H84.8662ZM84.8207 16.9536C84.7989 16.9759 84.7678 16.9898 84.7199 16.9898V17.1384C84.7992 17.1384 84.8703 17.1137 84.9246 17.0587L84.8207 16.9536ZM84.7199 16.9898H84.2426V17.1384H84.7199V16.9898ZM84.2426 16.9898C84.1947 16.9898 84.158 16.9758 84.1281 16.9498L84.0323 17.0626C84.0914 17.1137 84.163 17.1384 84.2426 17.1384V16.9898ZM84.136 16.9578C84.1101 16.9273 84.0963 16.8902 84.0963 16.8419H83.9495C83.9495 16.9224 83.9739 16.9948 84.0244 17.0545L84.136 16.9578ZM84.0963 16.8419V14.1651H83.9495V16.8419H84.0963ZM84.0963 14.1651C84.0963 13.6959 83.9818 13.3215 83.7434 13.0524L83.6339 13.1516C83.8409 13.3851 83.9495 13.7194 83.9495 14.1651H84.0963ZM83.744 13.0532C83.5103 12.7818 83.1724 12.6509 82.7434 12.6509V12.7994C83.1419 12.7994 83.4343 12.9198 83.6333 13.1508L83.744 13.0532ZM82.7434 12.6509C82.3254 12.6509 81.9836 12.7859 81.7258 13.0605L81.8321 13.1628C82.0582 12.9221 82.3594 12.7994 82.7434 12.7994V12.6509ZM81.7258 13.0605C81.4736 13.3294 81.3524 13.701 81.3524 14.1651H81.4992C81.4992 13.7272 81.6131 13.3965 81.8324 13.1628L81.7258 13.0605ZM81.3524 14.1651V16.8419H81.4992V14.1651H81.3524ZM81.3524 16.8419C81.3524 16.8868 81.3377 16.9226 81.3069 16.9536L81.4108 17.0587C81.4692 16.9995 81.4992 16.9258 81.4992 16.8419H81.3524ZM81.3069 16.9536C81.2848 16.9759 81.254 16.9898 81.2062 16.9898V17.1384C81.2854 17.1384 81.3565 17.1137 81.4108 17.0587L81.3069 16.9536ZM81.2062 16.9898H80.7288V17.1384H81.2062V16.9898ZM86.7287 16.552L86.6756 16.6032L86.6765 16.6041L86.7287 16.552ZM86.089 14.8705L86.0156 14.8727V14.8745L86.089 14.8705ZM86.0793 14.5419L86.0059 14.5397C86.0059 14.5411 86.0059 14.5426 86.0059 14.5441L86.0793 14.5419ZM86.089 14.223L86.0156 14.2182V14.2208L86.089 14.223ZM86.7381 12.5609L86.6856 12.5092L86.685 12.5096L86.7381 12.5609ZM89.9369 12.6285L89.8811 12.6769L89.8817 12.6773L89.9369 12.6285ZM86.9959 14.8512V14.7769C86.9554 14.7769 86.9225 14.8101 86.9225 14.8512H86.9959ZM86.9959 14.9381H86.9225L86.9228 14.9415L86.9959 14.9381ZM87.3685 16.0108L87.3107 16.0566L87.3118 16.058L87.3685 16.0108ZM89.0106 16.2717L89.0493 16.3348L89.0499 16.3345L89.0106 16.2717ZM89.4307 15.8948L89.372 15.8502L89.3708 15.8522L89.4307 15.8948ZM89.5549 15.7595L89.5878 15.826C89.5896 15.8251 89.591 15.8242 89.5928 15.8232L89.5549 15.7595ZM90.1183 16.4263L90.0637 16.3765L90.0628 16.3775L90.1183 16.4263ZM89.3832 16.9482L89.4131 17.0159L89.4137 17.0157L89.3832 16.9482ZM89.6122 14.1844V14.2586C89.6527 14.2586 89.6856 14.2254 89.6856 14.1844H89.6122ZM89.2493 13.0731L89.1932 13.1209L89.1944 13.1222L89.2493 13.0731ZM87.3397 13.0731L87.2836 13.0252L87.2834 13.0254L87.3397 13.0731ZM86.9959 14.1844H86.9225C86.9225 14.2254 86.9554 14.2586 86.9959 14.2586V14.1844ZM88.3042 17.0865C87.6647 17.0865 87.1595 16.8892 86.781 16.4999L86.6765 16.6041C87.0872 17.0265 87.6324 17.2351 88.3042 17.2351V17.0865ZM86.7819 16.5007C86.4084 16.1041 86.1997 15.5619 86.1621 14.8664L86.0156 14.8745C86.0546 15.5964 86.2725 16.1752 86.6756 16.6032L86.7819 16.5007ZM86.1624 14.8683L86.1527 14.5397L86.0059 14.5441L86.0156 14.8727L86.1624 14.8683ZM86.1527 14.5442L86.1624 14.2253L86.0156 14.2208L86.0059 14.5397L86.1527 14.5442ZM86.1621 14.2278C86.2058 13.5454 86.4175 13.0092 86.7913 12.6121L86.685 12.5096C86.2825 12.9372 86.0611 13.5091 86.0156 14.2182L86.1621 14.2278ZM86.791 12.6126C87.1697 12.2167 87.6686 12.0167 88.2945 12.0167V11.8681C87.6348 11.8681 87.0957 12.0804 86.6856 12.5092L86.791 12.6126ZM88.2945 12.0167C88.9842 12.0167 89.5094 12.239 89.8811 12.6769L89.9927 12.5801C89.5878 12.1032 89.0182 11.8681 88.2945 11.8681V12.0167ZM89.8817 12.6773C90.2552 13.1112 90.446 13.7041 90.446 14.4646H90.5928C90.5928 13.679 90.3952 13.0478 89.9924 12.5797L89.8817 12.6773ZM90.446 14.4646V14.6289H90.5928V14.4646H90.446ZM90.446 14.6289C90.446 14.6738 90.4313 14.7096 90.4005 14.7406L90.5044 14.8457C90.5628 14.7865 90.5928 14.7128 90.5928 14.6289H90.446ZM90.4005 14.7406C90.3788 14.7629 90.3476 14.7769 90.2998 14.7769V14.9254C90.3791 14.9254 90.4501 14.9007 90.5044 14.8457L90.4005 14.7406ZM90.2998 14.7769H86.9959V14.9254H90.2998V14.7769ZM86.9225 14.8512V14.9381H87.0693V14.8512H86.9225ZM86.9228 14.9415C86.9425 15.3739 87.0711 15.7467 87.3107 16.0566L87.4263 15.965C87.2076 15.6822 87.0878 15.3399 87.0693 14.9347L86.9228 14.9415ZM87.3118 16.058C87.5617 16.3656 87.8914 16.5199 88.2945 16.5199V16.3714C87.934 16.3714 87.6462 16.2358 87.4252 15.9636L87.3118 16.058ZM88.2945 16.5199C88.5966 16.5199 88.8497 16.4602 89.0493 16.3348L88.9721 16.2086C88.8024 16.3151 88.5784 16.3714 88.2945 16.3714V16.5199ZM89.0499 16.3345C89.2458 16.209 89.3943 16.0771 89.4909 15.9374L89.3708 15.8522C89.2892 15.9703 89.1577 16.0896 88.9715 16.2089L89.0499 16.3345ZM89.4894 15.9394C89.5173 15.9018 89.5402 15.8735 89.5587 15.8536C89.5678 15.8436 89.5752 15.8365 89.5808 15.8316C89.5866 15.8265 89.589 15.8254 89.5878 15.826L89.522 15.6931C89.4968 15.7059 89.4724 15.7291 89.451 15.7525C89.4278 15.7777 89.4017 15.8105 89.372 15.8502L89.4894 15.9394ZM89.5928 15.8232C89.6063 15.815 89.643 15.8048 89.7173 15.8048V15.6563C89.6389 15.6563 89.5672 15.6654 89.5173 15.6958L89.5928 15.8232ZM89.7173 15.8048H90.1853V15.6563H89.7173V15.8048ZM90.1853 15.8048C90.2281 15.8048 90.2584 15.8165 90.2813 15.8359L90.3755 15.7218C90.3221 15.6768 90.2569 15.6563 90.1853 15.6563V15.8048ZM90.2813 15.8359C90.3001 15.8518 90.3124 15.8745 90.3124 15.9142H90.4592C90.4592 15.8379 90.4331 15.7704 90.3755 15.7218L90.2813 15.8359ZM90.3124 15.9142C90.3124 16.0269 90.2396 16.1797 90.0637 16.3765L90.1729 16.4761C90.3535 16.2735 90.4592 16.0849 90.4592 15.9142H90.3124ZM90.0628 16.3775C89.8999 16.5671 89.6644 16.7355 89.3523 16.8807L89.4137 17.0157C89.7384 16.8645 89.993 16.685 90.1738 16.4751L90.0628 16.3775ZM89.3529 16.8804C89.0523 17.0171 88.7032 17.0865 88.3042 17.0865V17.2351C88.7199 17.2351 89.0902 17.1627 89.4131 17.0159L89.3529 16.8804ZM89.6856 14.1844V14.1554H89.5388V14.1844H89.6856ZM89.6856 14.1554C89.6856 13.6966 89.5605 13.3171 89.3045 13.0238L89.1944 13.1222C89.4222 13.3831 89.5388 13.7251 89.5388 14.1554H89.6856ZM89.3057 13.0252C89.0546 12.7233 88.7149 12.5736 88.2945 12.5736V12.7221C88.6762 12.7221 88.973 12.8559 89.1932 13.1209L89.3057 13.0252ZM88.2945 12.5736C87.8744 12.5736 87.5344 12.7233 87.2836 13.0252L87.3958 13.1209C87.616 12.8559 87.9128 12.7221 88.2945 12.7221V12.5736ZM87.2834 13.0254C87.0408 13.3186 86.9225 13.6976 86.9225 14.1554H87.0693C87.0693 13.7241 87.1803 13.3815 87.3961 13.1207L87.2834 13.0254ZM86.9225 14.1554V14.1844H87.0693V14.1554H86.9225ZM86.9959 14.2586H89.6122V14.1101H86.9959V14.2586Z" fill="white"/>
<path d="M55.5693 39.7601C55.4398 39.7601 55.3268 39.7107 55.2296 39.6127C55.1327 39.5143 55.084 39.3999 55.084 39.2689C55.084 39.1379 55.0922 39.0481 55.1084 38.9988L61.1245 23.1144C61.2537 22.7544 61.5126 22.5743 61.9007 22.5743H63.5502C63.9383 22.5743 64.197 22.7544 64.3265 23.1144L70.3182 38.9988L70.3667 39.2689C70.3667 39.3999 70.3182 39.5143 70.221 39.6127C70.1241 39.7107 70.0108 39.7601 69.8816 39.7601H68.6444C68.4665 39.7601 68.3291 39.7191 68.2319 39.6374C68.135 39.539 68.0701 39.4409 68.0378 39.3426L66.7037 35.8565H58.7472L57.4128 39.3426C57.3805 39.4409 57.3077 39.539 57.1947 39.6374C57.0975 39.7191 56.968 39.7601 56.8065 39.7601H55.5693ZM66.0003 33.745L62.7255 25.0294L59.4507 33.745H66.0003ZM73.009 24.612C72.8473 24.612 72.7099 24.5629 72.5965 24.4647C72.4993 24.3502 72.4509 24.211 72.4509 24.0474V22.7216C72.4509 22.5579 72.4993 22.4188 72.5965 22.3042C72.7099 22.1897 72.8473 22.1324 73.009 22.1324H74.5372C74.699 22.1324 74.8364 22.1897 74.9494 22.3042C75.0628 22.4188 75.1194 22.5579 75.1194 22.7216V24.0474C75.1194 24.211 75.0628 24.3502 74.9494 24.4647C74.8364 24.5629 74.699 24.612 74.5372 24.612H73.009ZM73.2031 39.7601C73.0413 39.7601 72.9039 39.7107 72.7906 39.6127C72.6934 39.498 72.645 39.3589 72.645 39.1952V27.5581C72.645 27.3945 72.6934 27.2635 72.7906 27.1653C72.9039 27.0508 73.0413 26.9935 73.2031 26.9935H74.3672C74.529 26.9935 74.6585 27.0508 74.7554 27.1653C74.8687 27.2635 74.9254 27.3945 74.9254 27.5581V39.1952C74.9254 39.3589 74.8687 39.498 74.7554 39.6127C74.6585 39.7107 74.529 39.7601 74.3672 39.7601H73.2031ZM79.078 39.7601C78.9162 39.7601 78.7788 39.7107 78.6655 39.6127C78.5686 39.498 78.5202 39.3589 78.5202 39.1952V27.5827C78.5202 27.419 78.5686 27.2799 78.6655 27.1653C78.7788 27.0508 78.9162 26.9935 79.078 26.9935H80.194C80.3555 26.9935 80.4931 27.0508 80.6062 27.1653C80.7195 27.2799 80.7762 27.419 80.7762 27.5827V28.6629C81.4391 27.55 82.5712 26.9935 84.1722 26.9935H85.1182C85.28 26.9935 85.4095 27.0508 85.5063 27.1653C85.6197 27.2635 85.676 27.3945 85.676 27.5581V28.5647C85.676 28.7284 85.6197 28.8594 85.5063 28.9576C85.4095 29.0558 85.28 29.1049 85.1182 29.1049H83.6628C82.7894 29.1049 82.1021 29.3667 81.6009 29.8905C81.0994 30.398 80.8487 31.0936 80.8487 31.9773V39.1952C80.8487 39.3589 80.7923 39.498 80.679 39.6127C80.5657 39.7107 80.4283 39.7601 80.2665 39.7601H79.078ZM89.5545 39.7601C89.393 39.7601 89.2553 39.7107 89.1423 39.6127C89.0451 39.498 88.9966 39.3589 88.9966 39.1952V28.9576H86.9347C86.7729 28.9576 86.6355 28.9084 86.5225 28.8102C86.4253 28.6957 86.3769 28.5565 86.3769 28.3929V27.5581C86.3769 27.3945 86.4253 27.2635 86.5225 27.1653C86.6355 27.0508 86.7729 26.9935 86.9347 26.9935H88.9966V25.7659C88.9966 22.9835 90.3874 21.5923 93.169 21.5923H94.5274C94.6892 21.5923 94.8187 21.6496 94.9156 21.7641C95.0289 21.8623 95.0856 21.9933 95.0856 22.1569V22.9917C95.0856 23.1553 95.0289 23.2945 94.9156 23.409C94.8187 23.5073 94.6892 23.5563 94.5274 23.5563H93.2177C92.4899 23.5563 91.9805 23.7528 91.6892 24.1456C91.3983 24.522 91.2526 25.1031 91.2526 25.8887V26.9935H96.4437V22.1569C96.4437 21.9933 96.4925 21.8623 96.5894 21.7641C96.7027 21.6496 96.8401 21.5923 97.0019 21.5923H98.1176C98.2793 21.5923 98.4088 21.6496 98.5057 21.7641C98.619 21.8623 98.6757 21.9933 98.6757 22.1569V39.1952C98.6757 39.3589 98.619 39.498 98.5057 39.6127C98.4088 39.7107 98.2793 39.7601 98.1176 39.7601H97.0019C96.8401 39.7601 96.7027 39.7107 96.5894 39.6127C96.4925 39.498 96.4437 39.3589 96.4437 39.1952V28.9576H91.2526V39.1952C91.2526 39.3589 91.196 39.498 91.0829 39.6127C90.9858 39.7107 90.8566 39.7601 90.6948 39.7601H89.5545ZM107.448 40.0055C105.669 40.0055 104.286 39.498 103.3 38.4833C102.329 37.4685 101.812 36.1183 101.747 34.4323L101.723 33.3769L101.747 32.3211C101.812 30.6515 102.337 29.3094 103.324 28.2947C104.31 27.2635 105.685 26.748 107.448 26.748C109.21 26.748 110.585 27.2635 111.571 28.2947C112.558 29.3094 113.083 30.6515 113.148 32.3211C113.164 32.5012 113.172 32.853 113.172 33.3769C113.172 33.9004 113.164 34.2522 113.148 34.4323C113.083 36.1183 112.558 37.4685 111.571 38.4833C110.601 39.498 109.226 40.0055 107.448 40.0055ZM107.448 38.1151C108.466 38.1151 109.267 37.7876 109.849 37.133C110.448 36.4784 110.771 35.5371 110.819 34.3096C110.836 34.1459 110.844 33.835 110.844 33.3769C110.844 32.9184 110.836 32.6075 110.819 32.4438C110.771 31.2163 110.448 30.275 109.849 29.6204C109.267 28.9657 108.466 28.6384 107.448 28.6384C106.429 28.6384 105.62 28.9657 105.022 29.6204C104.423 30.275 104.108 31.2163 104.076 32.4438L104.051 33.3769L104.076 34.3096C104.108 35.5371 104.423 36.4784 105.022 37.133C105.62 37.7876 106.429 38.1151 107.448 38.1151ZM119.226 39.7601C119.016 39.7601 118.854 39.7107 118.741 39.6127C118.628 39.5143 118.531 39.3589 118.45 39.1462L115.005 27.7546L114.957 27.5091C114.957 27.3617 115.005 27.239 115.102 27.1408C115.215 27.0426 115.337 26.9935 115.466 26.9935H116.533C116.695 26.9935 116.824 27.0426 116.921 27.1408C117.035 27.2226 117.107 27.3126 117.14 27.4108L119.832 36.6665L122.719 27.5091C122.752 27.3781 122.824 27.2635 122.937 27.1653C123.051 27.0508 123.204 26.9935 123.398 26.9935H124.223C124.417 26.9935 124.571 27.0508 124.684 27.1653C124.797 27.2635 124.87 27.3781 124.903 27.5091L127.789 36.6665L130.482 27.4108C130.498 27.329 130.555 27.239 130.651 27.1408C130.765 27.0426 130.902 26.9935 131.064 26.9935H132.156C132.285 26.9935 132.398 27.0426 132.495 27.1408C132.592 27.239 132.641 27.3617 132.641 27.5091L132.592 27.7546L129.172 39.1462C129.091 39.3589 128.994 39.5143 128.881 39.6127C128.767 39.7107 128.598 39.7601 128.371 39.7601H127.425C126.989 39.7601 126.722 39.5553 126.625 39.1462L123.811 30.357L120.997 39.1462C120.868 39.5553 120.592 39.7601 120.172 39.7601H119.226Z" fill="white"/>
</g>
</g>
<defs>
<clipPath id="clip0_9_840">
<rect width="133" height="52" fill="white"/>
</clipPath>
</defs>
</svg>
